<svg xmlns="http://www.w3.org/2000/svg" viewBox="0 0 1920 963" preserveAspectRatio="xMidYMid" width="3840" height="1926" xmlns:xlink="http://www.w3.org/1999/xlink" style="shape-rendering:auto;display:block;background-position-x:0%;background-position-y:0%;background-size:auto;background-origin:padding-box;background-clip:border-box;background:scroll rgb(0, 0, 0) none  repeat;width:3840px;height:1926px;;animation:none"><g><g transform="matrix(-0.8309844396442304,0.556295659761214,-0.556295659761214,-0.8309844396442304,2025.6014222334857,347.5751743179315)" style="transform:matrix(-0.830984, 0.556296, -0.556296, -0.830984, 2025.6, 347.575);;animation:none"><path stroke-width="8.915094339622641" stroke-opacity="0" stroke="rgb(70, 88, 172)" fill="none" d="M -1920 579.037 S -1352 537.037 -1200 537.037 S -586 588.037 -480 588.037 S 0 530.037 240 530.037 S 842 571.037 960 571.037 S 1507 532.037 1680 532.037 S 2163 565.037 2400 565.037 S 2889 529.037 3120 529.037 S 3567 552.037 3840 552.037" transform="matrix(1,0,0,1,960,0)" style="fill:none;stroke:rgb(70, 88, 172);transform:matrix(1, 0, 0, 1, 960, 0);;animation:none"></path></g>
<g transform="matrix(-0.8310856126854207,0.5561444995568138,-0.5561444995568138,-0.8310856126854207,2025.6257647146097,347.7690029334888)" style="transform:matrix(-0.831086, 0.556144, -0.556144, -0.831086, 2025.63, 347.769);;animation:none"><path stroke-width="8.830188679245284" stroke-opacity="0" stroke="rgb(70, 88, 172)" fill="none" d="M -1920 542.173 S -1393.96 522.159 -1200 522.159 S -669.018 580.158 -480 580.158 S 2.98746 570.152 240 570.152 S 869.973 607.149 960 607.149 S 1413 585.138 1680 585.138 S 2190.02 641.128 2400 641.128 S 2912.04 584.139 3120 584.139 S 3603.05 601.139 3840 601.139" transform="matrix(1,0,0,1,959.770263671875,0)" style="fill:none;stroke:rgb(70, 88, 172);transform:matrix(1, 0, 0, 1, 959.77, 0);;animation:none"></path></g>
<g transform="matrix(-0.8313962182266493,0.5556800593132938,-0.5556800593132938,-0.8313962182266493,2025.7003180569343,348.36442213536964)" style="transform:matrix(-0.831396, 0.55568, -0.55568, -0.831396, 2025.7, 348.364);;animation:none"><path stroke-width="8.745283018867925" stroke-opacity="0" stroke="rgb(72, 87, 171)" fill="none" d="M -1920 501.239 S -1346.12 465.208 -1200 465.208 S -587.955 478.235 -480 478.235 S 67.8665 421.239 240 421.239 S 735.173 449.286 960 449.286 S 1515.05 410.296 1680 410.296 S 2179.97 427.338 2400 427.338 S 2906.99 386.394 3120 386.394 S 3566.14 428.418 3840 428.418" transform="matrix(1,0,0,1,959.0731811523438,0)" style="fill:none;stroke:rgb(72, 87, 171);transform:matrix(1, 0, 0, 1, 959.073, 0);;animation:none"></path></g>
<g transform="matrix(-0.8319263710090675,0.5548860362449962,-0.5548860362449962,-0.8319263710090675,2025.8269426206705,349.3819528456696)" style="transform:matrix(-0.831926, 0.554886, -0.554886, -0.831926, 2025.83, 349.382);;animation:none"><path stroke-width="8.660377358490566" stroke-opacity="0" stroke="rgb(74, 86, 170)" fill="none" d="M -1920 566.861 S -1484.16 529.794 -1200 529.794 S -728.834 573.78 -480 573.78 S 165.609 557.785 240 557.785 S 692.477 575.906 960 575.906 S 1525.79 531.037 1680 531.037 S 2153.75 554.118 2400 554.118 S 2848.26 544.073 3120 544.073 S 3711.48 588.104 3840 588.104" transform="matrix(1,0,0,1,957.8967895507812,0)" style="fill:none;stroke:rgb(74, 86, 170);transform:matrix(1, 0, 0, 1, 957.897, 0);;animation:none"></path></g>
<g transform="matrix(-0.832687072433916,0.5537438391543822,-0.5537438391543822,-0.832687072433916,2026.0072480893944,350.8447397887237)" style="transform:matrix(-0.832687, 0.553744, -0.553744, -0.832687, 2026.01, 350.845);;animation:none"><path stroke-width="8.575471698113208" stroke-opacity="0" stroke="rgb(76, 85, 168)" fill="none" d="M -1920 578.602 S -1352.45 536.789 -1200 536.789 S -586.553 587.675 -480 587.675 S 0.36618 529.976 240 529.976 S 841.129 570.976 960 570.976 S 1506.59 532.074 1680 532.074 S 2164.31 565.041 2400 565.041 S 2889.9 529.001 3120 529.001 S 3567.33 552.074 3840 552.074" transform="matrix(1,0,0,1,956.2283935546875,0)" style="fill:none;stroke:rgb(76, 85, 168);transform:matrix(1, 0, 0, 1, 956.228, 0);;animation:none"></path></g>
<g transform="matrix(-0.8336889498300538,0.5522343116207666,-0.5522343116207666,-0.8336889498300538,2026.242212882251,352.77629018723496)" style="transform:matrix(-0.833689, 0.552234, -0.552234, -0.833689, 2026.24, 352.776);;animation:none"><path stroke-width="8.49056603773585" stroke-opacity="0" stroke="rgb(81, 83, 166)" fill="none" d="M -1920 542.627 S -1392.9 522.251 -1200 522.251 S -669.492 580.212 -480 580.212 S 2.66348 570.057 240 570.057 S 869.288 606.979 960 606.979 S 1412.91 584.669 1680 584.669 S 2190.49 640.423 2400 640.423 S 2913 583.708 3120 583.708 S 3604.32 600.708 3840 600.708" transform="matrix(1,0,0,1,954.0557250976562,0)" style="fill:none;stroke:rgb(81, 83, 166);transform:matrix(1, 0, 0, 1, 954.056, 0);;animation:none"></path></g>
<g transform="matrix(-0.8349430540442708,0.5503363485208167,-0.5503363485208167,-0.8349430540442708,2026.5322836952732,355.2021859423324)" style="transform:matrix(-0.834943, 0.550336, -0.550336, -0.834943, 2026.53, 355.202);;animation:none"><path stroke-width="8.40566037735849" stroke-opacity="0" stroke="rgb(86, 81, 162)" fill="none" d="M -1920 502.599 S -1347.18 466.296 -1200 466.296 S -587.564 479.561 -480 479.561 S 66.7095 422.599 240 422.599 S 736.67 451.055 960 451.055 S 1515.46 412.149 1680 412.149 S 2179.68 429.548 2400 429.548 S 2906.87 389.098 3120 389.098 S 3567.39 431.326 3840 431.326" transform="matrix(1,0,0,1,951.3653564453125,0)" style="fill:none;stroke:rgb(86, 81, 162);transform:matrix(1, 0, 0, 1, 951.365, 0);;animation:none"></path></g>
<g transform="matrix(-0.8364603146843969,0.548027501096505,-0.548027501096505,-0.8364603146843969,2026.8771438749882,358.14924046789235)" style="transform:matrix(-0.83646, 0.548028, -0.548028, -0.83646, 2026.88, 358.149);;animation:none"><path stroke-width="8.320754716981131" stroke-opacity="0" stroke="rgb(92, 77, 158)" fill="none" d="M -1920 566.227 S -1480.08 528.832 -1200 528.832 S -728.027 572.753 -480 572.753 S 163.711 556.78 240 556.78 S 694.788 575.49 960 575.49 S 1524.79 531.253 1680 531.253 S 2157.37 554.726 2400 554.726 S 2849.53 544.463 3120 544.463 S 3708.95 588.647 3840 588.647" transform="matrix(1,0,0,1,948.143798828125,0)" style="fill:none;stroke:rgb(92, 77, 158);transform:matrix(1, 0, 0, 1, 948.144, 0);;animation:none"></path></g>
<g transform="matrix(-0.8382517170886581,0.5452834664630097,-0.5452834664630097,-0.8382517170886581,2027.275637507051,361.6460739736995)" style="transform:matrix(-0.838252, 0.545283, -0.545283, -0.838252, 2027.28, 361.646);;animation:none"><path stroke-width="8.235849056603774" stroke-opacity="0" stroke="rgb(100, 74, 153)" fill="none" d="M -1920 577.167 S -1353.92 535.971 -1200 535.971 S -588.38 586.482 -480 586.482 S 1.57492 529.776 240 529.776 S 838.255 570.776 960 570.776 S 1505.25 532.196 1680 532.196 S 2168.63 565.056 2400 565.056 S 2892.85 528.881 3120 528.881 S 3568.4 552.196 3840 552.196" transform="matrix(1,0,0,1,944.3764038085938,0)" style="fill:none;stroke:rgb(100, 74, 153);transform:matrix(1, 0, 0, 1, 944.376, 0);;animation:none"></path></g>
<g transform="matrix(-0.8403270115570418,0.5420798037628881,-0.5420798037628881,-0.8403270115570418,2027.7253566065908,365.72084445234304)" style="transform:matrix(-0.840327, 0.54208, -0.54208, -0.840327, 2027.73, 365.721);;animation:none"><path stroke-width="8.150943396226415" stroke-opacity="0" stroke="rgb(109, 69, 148)" fill="none" d="M -1920 543.797 S -1390.16 522.489 -1200 522.489 S -670.715 580.353 -480 580.353 S 1.82678 569.812 240 569.812 S 867.518 606.541 960 606.541 S 1412.68 583.458 1680 583.458 S 2191.71 638.601 2400 638.601 S 2915.47 582.594 3120 582.594 S 3607.6 599.594 3840 599.594" transform="matrix(1,0,0,1,940.0499877929688,0)" style="fill:none;stroke:rgb(109, 69, 148);transform:matrix(1, 0, 0, 1, 940.05, 0);;animation:none"></path></g>
<g transform="matrix(-0.842696461746811,0.5383889610304111,-0.5383889610304111,-0.842696461746811,2028.2228880130815,370.4049437418948)" style="transform:matrix(-0.842696, 0.538389, -0.538389, -0.842696, 2028.22, 370.405);;animation:none"><path stroke-width="8.066037735849056" stroke-opacity="0" stroke="rgb(120, 64, 141)" fill="none" d="M -1920 505.619 S -1349.52 468.711 -1200 468.711 S -586.695 482.505 -480 482.505 S 64.1405 425.619 240 425.619 S 739.995 454.981 960 454.981 S 1516.36 416.265 1680 416.265 S 2179.04 434.457 2400 434.457 S 2906.6 395.103 3120 395.103 S 3570.14 437.784 3840 437.784" transform="matrix(1,0,0,1,935.149169921875,0)" style="fill:none;stroke:rgb(120, 64, 141);transform:matrix(1, 0, 0, 1, 935.149, 0);;animation:none"></path></g>
<g transform="matrix(-0.8453690869331506,0.5341826530858254,-0.5341826530858254,-0.8453690869331506,2028.7632709166496,375.72986839591965)" style="transform:matrix(-0.845369, 0.534183, -0.534183, -0.845369, 2028.76, 375.73);;animation:none"><path stroke-width="7.981132075471698" stroke-opacity="0" stroke="rgb(132, 58, 134)" fill="none" d="M -1920 564.956 S -1471.91 526.907 -1200 526.907 S -726.411 570.697 -480 570.697 S 159.912 554.767 240 554.767 S 699.418 574.656 960 574.656 S 1522.78 531.685 1680 531.685 S 2164.62 555.945 2400 555.945 S 2852.06 545.245 3120 545.245 S 3703.88 589.735 3840 589.735" transform="matrix(1,0,0,1,929.6580810546875,0)" style="fill:none;stroke:rgb(132, 58, 134);transform:matrix(1, 0, 0, 1, 929.658, 0);;animation:none"></path></g>
<g transform="matrix(-0.8483513781032116,0.5294336023245803,-0.5294336023245803,-0.8483513781032116,2029.3396024983685,381.72493032509936)" style="transform:matrix(-0.848351, 0.529434, -0.529434, -0.848351, 2029.34, 381.725);;animation:none"><path stroke-width="7.89622641509434" stroke-opacity="0" stroke="rgb(145, 52, 126)" fill="none" d="M -1920 574.502 S -1356.67 534.454 -1200 534.454 S -591.77 584.266 -480 584.266 S 3.81836 529.406 240 529.406 S 832.921 570.406 960 570.406 S 1502.76 532.424 1680 532.424 S 2176.66 565.084 2400 565.084 S 2898.33 528.66 3120 528.66 S 3570.39 552.424 3840 552.424" transform="matrix(1,0,0,1,923.5626220703125,0)" style="fill:none;stroke:rgb(145, 52, 126);transform:matrix(1, 0, 0, 1, 923.563, 0);;animation:none"></path></g>
<g transform="matrix(-0.8516494210403082,0.5241118808438785,-0.5241118808438785,-0.8516494210403082,2029.9433148250232,388.42179062078503)" style="transform:matrix(-0.851649, 0.524112, -0.524112, -0.851649, 2029.94, 388.422);;animation:none"><path stroke-width="7.811320754716981" stroke-opacity="0" stroke="rgb(159, 46, 117)" fill="none" d="M -1920 545.847 S -1385.38 522.905 -1200 522.905 S -672.855 580.6 -480 580.6 S 0.36203 569.383 240 569.383 S 864.42 605.774 960 605.774 S 1412.29 581.339 1680 581.339 S 2193.86 635.411 2400 635.411 S 2919.81 580.643 3120 580.643 S 3613.35 597.643 3840 597.643" transform="matrix(1,0,0,1,916.8460693359375,0)" style="fill:none;stroke:rgb(159, 46, 117);transform:matrix(1, 0, 0, 1, 916.846, 0);;animation:none"></path></g>
<g transform="matrix(-0.8552663216249808,0.5181886906273377,-0.5181886906273377,-0.8552663216249808,2030.5635232970446,395.84959086018404)" style="transform:matrix(-0.855266, 0.518189, -0.518189, -0.855266, 2030.56, 395.85);;animation:none"><path stroke-width="7.726415094339623" stroke-opacity="0" stroke="rgb(173, 39, 109)" fill="none" d="M -1920 510.663 S -1353.43 472.745 -1200 472.745 S -585.243 487.424 -480 487.424 S 59.8489 430.663 240 430.663 S 745.548 461.54 960 461.54 S 1517.88 423.14 1680 423.14 S 2177.96 442.657 2400 442.657 S 2906.16 405.133 3120 405.133 S 3574.75 448.571 3840 448.571" transform="matrix(1,0,0,1,909.4920654296875,0)" style="fill:none;stroke:rgb(173, 39, 109);transform:matrix(1, 0, 0, 1, 909.492, 0);;animation:none"></path></g>
<g transform="matrix(-0.859202094557147,0.511636355929298,-0.511636355929298,-0.859202094557147,2031.1869161548182,404.03490683714017)" style="transform:matrix(-0.859202, 0.511636, -0.511636, -0.859202, 2031.19, 404.035);;animation:none"><path stroke-width="7.6415094339622645" stroke-opacity="0" stroke="rgb(186, 33, 100)" fill="none" d="M -1920 562.915 S -1458.79 523.813 -1200 523.813 S -723.815 567.393 -480 567.393 S 153.807 551.533 240 551.533 S 706.855 573.317 960 573.317 S 1519.55 532.381 1680 532.381 S 2176.26 557.903 2400 557.903 S 2856.13 546.502 3120 546.502 S 3695.74 591.483 3840 591.483" transform="matrix(1,0,0,1,901.48291015625,0)" style="fill:none;stroke:rgb(186, 33, 100);transform:matrix(1, 0, 0, 1, 901.483, 0);;animation:none"></path></g>
<g transform="matrix(-0.863451413795185,0.5044320132734402,-0.5044320132734402,-0.863451413795185,2031.797371634539,412.99712299987897)" style="transform:matrix(-0.863451, 0.504432, -0.504432, -0.863451, 2031.8, 412.997);;animation:none"><path stroke-width="7.556603773584905" stroke-opacity="0" stroke="rgb(199, 27, 92)" fill="none" d="M -1920 570.362 S -1360.93 532.096 -1200 532.096 S -597.039 580.823 -480 580.823 S 7.3049 528.829 240 528.829 S 824.631 569.829 960 569.829 S 1498.88 532.777 1680 532.777 S 2189.14 565.128 2400 565.128 S 2906.86 528.316 3120 528.316 S 3573.49 552.777 3840 552.777" transform="matrix(1,0,0,1,892.8036499023438,0)" style="fill:none;stroke:rgb(199, 27, 92);transform:matrix(1, 0, 0, 1, 892.804, 0);;animation:none"></path></g>
<g transform="matrix(-0.8680056769707546,0.4965542717030455,-0.4965542717030455,-0.8680056769707546,2032.3763317169407,422.75263262649463)" style="transform:matrix(-0.868006, 0.496554, -0.496554, -0.868006, 2032.38, 422.753);;animation:none"><path stroke-width="7.471698113207547" stroke-opacity="0" stroke="rgb(210, 21, 85)" fill="none" d="M -1920 548.94 S -1378.15 523.532 -1200 523.532 S -676.086 580.973 -480 580.973 S -1.84818 568.735 240 568.735 S 859.744 604.617 960 604.617 S 1411.69 578.141 1680 578.141 S 2197.09 630.598 2400 630.598 S 2926.36 577.701 3120 577.701 S 3622.02 594.701 3840 594.701" transform="matrix(1,0,0,1,883.4359741210938,0)" style="fill:none;stroke:rgb(210, 21, 85);transform:matrix(1, 0, 0, 1, 883.436, 0);;animation:none"></path></g>
<g transform="matrix(-0.8728501153741779,0.48798839749658424,-0.48798839749658424,-0.8728501153741779,2032.902524153816,433.30846895594584)" style="transform:matrix(-0.87285, 0.487988, -0.487988, -0.87285, 2032.9, 433.308);;animation:none"><path stroke-width="7.386792452830188" stroke-opacity="0" stroke="rgb(221, 16, 79)" fill="none" d="M -1920 518.073 S -1359.18 478.672 -1200 478.672 S -583.111 494.648 -480 494.648 S 53.5451 438.073 240 438.073 S 753.706 471.175 960 471.175 S 1520.1 433.238 1680 433.238 S 2176.39 454.702 2400 454.702 S 2905.51 419.866 3120 419.866 S 3581.52 464.417 3840 464.417" transform="matrix(1,0,0,1,873.3607788085938,0)" style="fill:none;stroke:rgb(221, 16, 79);transform:matrix(1, 0, 0, 1, 873.361, 0);;animation:none"></path></g>
<g transform="matrix(-0.8779611238665932,0.47873193436296746,-0.47873193436296746,-0.8779611238665932,2033.3521053076984,444.65562415331584)" style="transform:matrix(-0.877961, 0.478732, -0.478732, -0.877961, 2033.35, 444.656);;animation:none"><path stroke-width="7.30188679245283" stroke-opacity="0" stroke="rgb(229, 12, 74)" fill="none" d="M -1920 559.992 S -1440 519.383 -1200 519.383 S -720.097 562.661 -480 562.661 S 145.066 546.901 240 546.901 S 717.506 571.398 960 571.398 S 1514.93 533.376 1680 533.376 S 2192.94 560.707 2400 560.707 S 2861.96 548.301 3120 548.301 S 3684.09 593.985 3840 593.985" transform="matrix(1,0,0,1,862.5630493164062,0)" style="fill:none;stroke:rgb(229, 12, 74);transform:matrix(1, 0, 0, 1, 862.563, 0);;animation:none"></path></g>
<g transform="matrix(-0.8833091611530174,0.4687909190920328,-0.4687909190920328,-0.8833091611530174,2033.6996222497105,456.7740787668264)" style="transform:matrix(-0.883309, 0.468791, -0.468791, -0.883309, 2033.7, 456.774);;animation:none"><path stroke-width="7.216981132075472" stroke-opacity="0" stroke="rgb(236, 9, 70)" fill="none" d="M -1920 564.578 S -1366.88 528.801 -1200 528.801 S -604.398 576.013 -480 576.013 S 12.1754 528.024 240 528.024 S 813.05 569.024 960 569.024 S 1493.47 533.271 1680 533.271 S 2206.56 565.188 2400 565.188 S 2918.76 527.836 3120 527.836 S 3577.82 553.271 3840 553.271" transform="matrix(1,0,0,1,851.0234985351562,0)" style="fill:none;stroke:rgb(236, 9, 70);transform:matrix(1, 0, 0, 1, 851.023, 0);;animation:none"></path></g>
<g transform="matrix(-0.8888560047915925,0.45818664618900484,-0.45818664618900484,-0.8888560047915925,2033.9186347399348,469.6249859657072)" style="transform:matrix(-0.888856, 0.458187, -0.458187, -0.888856, 2033.92, 469.625);;animation:none"><path stroke-width="7.132075471698113" stroke-opacity="0" stroke="rgb(242, 6, 66)" fill="none" d="M -1920 553.154 S -1368.3 524.388 -1200 524.388 S -680.488 581.481 -480 581.481 S -4.85999 567.853 240 567.853 S 853.373 603.039 960 603.039 S 1410.88 573.784 1680 573.784 S 2201.49 624.04 2400 624.04 S 2935.28 573.691 3120 573.691 S 3633.84 590.691 3840 590.691" transform="matrix(1,0,0,1,838.7239990234375,0)" style="fill:none;stroke:rgb(242, 6, 66);transform:matrix(1, 0, 0, 1, 838.724, 0);;animation:none"></path></g>
<g transform="matrix(-0.8945554481912054,0.44695698910681736,-0.44695698910681736,-0.8945554481912054,2033.9830205184896,483.14973876152067)" style="transform:matrix(-0.894555, 0.446957, -0.446957, -0.894555, 2033.98, 483.15);;animation:none"><path stroke-width="7.047169811320755" stroke-opacity="0" stroke="rgb(247, 4, 63)" fill="none" d="M -1920 527.916 S -1366.81 486.544 -1200 486.544 S -580.279 504.244 -480 504.244 S 45.1716 447.916 240 447.916 S 764.543 483.973 960 483.973 S 1523.06 446.651 1680 446.651 S 2174.29 470.701 2400 470.701 S 2904.65 439.437 3120 439.437 S 3590.51 485.466 3840 485.466" transform="matrix(1,0,0,1,825.6445922851562,0)" style="fill:none;stroke:rgb(247, 4, 63);transform:matrix(1, 0, 0, 1, 825.645, 0);;animation:none"></path></g>
<g transform="matrix(-0.9003517797107784,0.4351628117976465,-0.4351628117976465,-0.9003517797107784,2033.8686024029141,497.26308260499917)" style="transform:matrix(-0.900352, 0.435163, -0.435163, -0.900352, 2033.87, 497.263);;animation:none"><path stroke-width="6.962264150943396" stroke-opacity="0" stroke="rgb(250, 2, 61)" fill="none" d="M -1920 556.212 S -1415.7 513.653 -1200 513.653 S -715.289 556.541 -480 556.541 S 133.76 540.912 240 540.912 S 731.281 568.917 960 568.917 S 1508.95 534.664 1680 534.664 S 2214.51 564.334 2400 564.334 S 2869.49 550.628 3120 550.628 S 3669.01 597.222 3840 597.222" transform="matrix(1,0,0,1,811.7708740234375,0)" style="fill:none;stroke:rgb(250, 2, 61);transform:matrix(1, 0, 0, 1, 811.771, 0);;animation:none"></path></g>
<g transform="matrix(-0.9061848440572956,0.42288181375043177,-0.42288181375043177,-0.9061848440572956,2033.5550436158367,511.86146121317336)" style="transform:matrix(-0.906185, 0.422882, -0.422882, -0.906185, 2033.56, 511.861);;animation:none"><path stroke-width="6.877358490566038" stroke-opacity="0" stroke="rgb(253, 1, 59)" fill="none" d="M -1920 557.306 S -1374.36 524.659 -1200 524.659 S -613.651 569.966 -480 569.966 S 18.2986 527.012 240 527.012 S 798.49 568.012 960 568.012 S 1486.67 533.891 1680 533.891 S 2228.47 565.265 2400 565.265 S 2933.73 527.231 3120 527.231 S 3583.27 553.891 3840 553.891" transform="matrix(1,0,0,1,797.083251953125,0)" style="fill:none;stroke:rgb(253, 1, 59);transform:matrix(1, 0, 0, 1, 797.083, 0);;animation:none"></path></g>
<g transform="matrix(-0.9119910549476197,0.4102100872669123,-0.4102100872669123,-0.9119910549476197,2033.0275697687332,526.8220091810431)" style="transform:matrix(-0.911991, 0.41021, -0.41021, -0.911991, 2033.03, 526.822);;animation:none"><path stroke-width="6.7924528301886795" stroke-opacity="0" stroke="rgb(254, 0, 59)" fill="none" d="M -1920 558.296 S -1356.29 525.431 -1200 525.431 S -685.857 582.1 -480 582.1 S -8.53384 566.777 240 566.777 S 845.602 601.115 960 601.115 S 1409.89 568.468 1680 568.468 S 2206.86 616.04 2400 616.04 S 2946.16 568.799 3120 568.799 S 3648.25 585.799 3840 585.799" transform="matrix(1,0,0,1,781.5620727539062,0)" style="fill:none;stroke:rgb(254, 0, 59);transform:matrix(1, 0, 0, 1, 781.562, 0);;animation:none"></path></g>
<g transform="matrix(-0.917703257612265,0.3972665741889655,-0.3972665741889655,-0.917703257612265,2032.2789827797612,541.9982073188987)" style="transform:matrix(-0.917703, 0.397267, -0.397267, -0.917703, 2032.28, 541.998);;animation:none"><path stroke-width="6.7075471698113205" stroke-opacity="0" stroke="rgb(255, 0, 58)" fill="none" d="M -1920 539.54 S -1375.83 495.841 -1200 495.841 S -576.934 515.577 -480 515.577 S 35.2826 459.54 240 459.54 S 777.34 499.087 960 499.087 S 1526.55 462.493 1680 462.493 S 2171.82 489.597 2400 489.597 S 2903.63 462.55 3120 462.55 S 3601.12 510.323 3840 510.323" transform="matrix(1,0,0,1,765.1946411132812,0)" style="fill:none;stroke:rgb(255, 0, 58);transform:matrix(1, 0, 0, 1, 765.195, 0);;animation:none"></path></g>
<g transform="matrix(-0.9232591914688889,0.3841776481892374,-0.3841776481892374,-0.9232591914688889,2031.3103614132513,557.238758430602)" style="transform:matrix(-0.923259, 0.384178, -0.384178, -0.923259, 2031.31, 557.239);;animation:none"><path stroke-width="6.622641509433962" stroke-opacity="0" stroke="rgb(255, 0, 58)" fill="none" d="M -1920 551.898 S -1387.97 507.115 -1200 507.115 S -709.802 549.558 -480 549.558 S 120.859 534.077 240 534.077 S 746.999 566.086 960 566.086 S 1502.13 536.133 1680 536.133 S 2239.13 568.472 2400 568.472 S 2878.09 553.284 3120 553.284 S 3651.81 600.916 3840 600.916" transform="matrix(1,0,0,1,747.9622192382812,0)" style="fill:none;stroke:rgb(255, 0, 58);transform:matrix(1, 0, 0, 1, 747.962, 0);;animation:none"></path></g>
<g transform="matrix(-0.9286019706091072,0.3710773237222706,-0.3710773237222706,-0.9286019706091072,2030.1316231570163,572.3876180749054)" style="transform:matrix(-0.928602, 0.371077, -0.371077, -0.928602, 2030.13, 572.388);;animation:none"><path stroke-width="6.537735849056604" stroke-opacity="0" stroke="rgb(255, 0, 58)" fill="none" d="M -1920 549.304 S -1382.6 520.101 -1200 520.101 S -623.834 563.311 -480 563.311 S 25.0374 525.897 240 525.897 S 782.467 566.897 960 566.897 S 1479.18 534.574 1680 534.574 S 2252.58 565.349 2400 565.349 S 2950.2 526.567 3120 526.567 S 3589.26 554.574 3840 554.574" transform="matrix(1,0,0,1,729.8495483398438,0)" style="fill:none;stroke:rgb(255, 0, 58);transform:matrix(1, 0, 0, 1, 729.85, 0);;animation:none"></path></g>
<g transform="matrix(-0.9336839390080002,0.35809817374360486,-0.35809817374360486,-0.9336839390080002,2028.760852105226,587.2945698384914)" style="transform:matrix(-0.933684, 0.358098, -0.358098, -0.933684, 2028.76, 587.295);;animation:none"><path stroke-width="6.452830188679245" stroke-opacity="0" stroke="rgb(255, 1, 57)" fill="none" d="M -1920 563.744 S -1343.56 526.536 -1200 526.536 S -691.548 582.756 -480 582.756 S -12.4273 565.636 240 565.636 S 837.365 599.076 960 599.076 S 1408.85 562.835 1680 562.835 S 2212.55 607.561 2400 607.561 S 2957.69 563.615 3120 563.615 S 3663.52 580.615 3840 580.615" transform="matrix(1,0,0,1,710.83935546875,0)" style="fill:none;stroke:rgb(255, 1, 57);transform:matrix(1, 0, 0, 1, 710.839, 0);;animation:none"></path></g>
<g transform="matrix(-0.9384662784212982,0.3453708792965593,-0.3453708792965593,-0.9384662784212982,2027.2237056657395,601.8154689351582)" style="transform:matrix(-0.938466, 0.345371, -0.345371, -0.938466, 2027.22, 601.815);;animation:none"><path stroke-width="6.367924528301887" stroke-opacity="0" stroke="rgb(255, 3, 56)" fill="none" d="M -1920 551.392 S -1385.02 505.321 -1200 505.321 S -573.523 527.133 -480 527.133 S 25.1992 471.392 240 471.392 S 790.389 514.498 960 514.498 S 1530.11 478.645 1680 478.645 S 2169.3 508.863 2400 508.863 S 2902.59 486.117 3120 486.117 S 3611.95 535.67 3840 535.67" transform="matrix(1,0,0,1,690.9237060546875,0)" style="fill:none;stroke:rgb(255, 3, 56);transform:matrix(1, 0, 0, 1, 690.924, 0);;animation:none"></path></g>
<g transform="matrix(-0.9429237604323873,0.3330086815866004,-0.3330086815866004,-0.9429237604323873,2025.5504901990398,615.8294563250581)" style="transform:matrix(-0.942924, 0.333009, -0.333009, -0.942924, 2025.55, 615.829);;animation:none"><path stroke-width="6.283018867924528" stroke-opacity="0" stroke="rgb(255, 5, 55)" fill="none" d="M -1920 547.667 S -1360.78 500.703 -1200 500.703 S -704.422 542.71 -480 542.71 S 108.207 527.374 240 527.374 S 762.414 563.31 960 563.31 S 1495.44 537.574 1680 537.574 S 2263.27 572.531 2400 572.531 S 2886.53 555.888 3120 555.888 S 3634.94 604.538 3840 604.538" transform="matrix(1,0,0,1,670.0885009765625,0)" style="fill:none;stroke:rgb(255, 5, 55);transform:matrix(1, 0, 0, 1, 670.089, 0);;animation:none"></path></g>
<g transform="matrix(-0.9470426413527467,0.321107825285546,-0.321107825285546,-0.9470426413527467,2023.7743535736272,629.2375195372234)" style="transform:matrix(-0.947043, 0.321108, -0.321108, -0.947043, 2023.77, 629.238);;animation:none"><path stroke-width="6.19811320754717" stroke-opacity="0" stroke="rgb(255, 8, 54)" fill="none" d="M -1920 541.753 S -1390.37 515.799 -1200 515.799 S -633.443 557.032 -480 557.032 S 31.396 524.846 240 524.846 S 767.347 565.846 960 565.846 S 1472.12 535.218 1680 535.218 S 2275.33 565.428 2400 565.428 S 2965.75 525.939 3120 525.939 S 3594.91 555.218 3840 555.218" transform="matrix(1,0,0,1,648.3211669921875,0)" style="fill:none;stroke:rgb(255, 8, 54);transform:matrix(1, 0, 0, 1, 648.321, 0);;animation:none"></path></g>
<g transform="matrix(-0.9508175736887523,0.30975141898728087,-0.30975141898728087,-0.9508175736887523,2021.930178983578,641.9572995033445)" style="transform:matrix(-0.950818, 0.309751, -0.309751, -0.950818, 2021.93, 641.957);;animation:none"><path stroke-width="6.113207547169812" stroke-opacity="0" stroke="rgb(255, 11, 52)" fill="none" d="M -1920 568.695 S -1332 527.541 -1200 527.541 S -696.718 583.353 -480 583.353 S -15.9652 564.6 240 564.6 S 829.881 597.223 960 597.223 S 1407.89 557.717 1680 557.717 S 2217.72 599.857 2400 599.857 S 2968.17 558.905 3120 558.905 S 3677.4 575.905 3840 575.905" transform="matrix(1,0,0,1,625.6199951171875,0)" style="fill:none;stroke:rgb(255, 11, 52);transform:matrix(1, 0, 0, 1, 625.62, 0);;animation:none"></path></g>
<g transform="matrix(-0.9542535795721648,0.2989985048017969,-0.2989985048017969,-0.9542535795721648,2020.0512164513434,653.9345339542724)" style="transform:matrix(-0.954254, 0.298999, -0.298999, -0.954254, 2020.05, 653.935);;animation:none"><path stroke-width="6.028301886792453" stroke-opacity="0" stroke="rgb(255, 15, 50)" fill="none" d="M -1920 561.779 S -1393.08 513.629 -1200 513.629 S -570.534 537.261 -480 537.261 S 16.3624 481.779 240 481.779 S 801.825 528.004 960 528.004 S 1533.23 492.801 1680 492.801 S 2167.09 525.748 2400 525.748 S 2901.68 506.77 3120 506.77 S 3621.43 557.883 3840 557.883" transform="matrix(1,0,0,1,601.9776000976562,0)" style="fill:none;stroke:rgb(255, 15, 50);transform:matrix(1, 0, 0, 1, 601.978, 0);;animation:none"></path></g>
<g transform="matrix(-0.9573617305415904,0.2888918775154665,-0.2888918775154665,-0.9573617305415904,2018.1687003436239,665.1334708409279)" style="transform:matrix(-0.957362, 0.288892, -0.288892, -0.957362, 2018.17, 665.133);;animation:none"><path stroke-width="5.943396226415095" stroke-opacity="0" stroke="rgb(255, 20, 47)" fill="none" d="M -1920 544.085 S -1337.75 495.273 -1200 495.273 S -699.865 536.911 -480 536.911 S 97.4941 521.698 240 521.698 S 775.467 560.959 960 560.959 S 1489.78 538.794 1680 538.794 S 2283.71 575.968 2400 575.968 S 2893.67 558.093 3120 558.093 S 3620.66 607.605 3840 607.605" transform="matrix(1,0,0,1,577.39208984375,0)" style="fill:none;stroke:rgb(255, 20, 47);transform:matrix(1, 0, 0, 1, 577.392, 0);;animation:none"></path></g>
<g transform="matrix(-0.9601582876595457,0.27945672766761065,-0.27945672766761065,-0.9601582876595457,2016.3103705251183,675.537756947165)" style="transform:matrix(-0.960158, 0.279457, -0.279457, -0.960158, 2016.31, 675.538);;animation:none"><path stroke-width="5.8584905660377355" stroke-opacity="0" stroke="rgb(255, 26, 44)" fill="none" d="M -1920 535.562 S -1396.74 512.273 -1200 512.273 S -641.32 551.884 -480 551.884 S 36.6088 523.984 240 523.984 S 754.952 564.984 960 564.984 S 1466.32 535.747 1680 535.747 S 2293.98 565.493 2400 565.493 S 2978.49 525.425 3120 525.425 S 3599.54 555.747 3840 555.747" transform="matrix(1,0,0,1,551.8616943359375,0)" style="fill:none;stroke:rgb(255, 26, 44);transform:matrix(1, 0, 0, 1, 551.862, 0);;animation:none"></path></g>
<g transform="matrix(-0.96266141532093,0.27070832911512716,-0.27070832911512716,-0.96266141532093,2014.5010191770266,685.1414755265057)" style="transform:matrix(-0.962661, 0.270708, -0.270708, -0.962661, 2014.5, 685.141);;animation:none"><path stroke-width="5.773584905660377" stroke-opacity="0" stroke="rgb(255, 33, 40)" fill="none" d="M -1920 572.633 S -1322.8 528.34 -1200 528.34 S -700.831 583.827 -480 583.827 S -18.7793 563.775 240 563.775 S 823.928 595.749 960 595.749 S 1407.14 553.645 1680 553.645 S 2221.83 593.73 2400 593.73 S 2976.5 555.158 3120 555.158 S 3688.44 572.158 3840 572.158" transform="matrix(1,0,0,1,525.3988037109375,0)" style="fill:none;stroke:rgb(255, 33, 40);transform:matrix(1, 0, 0, 1, 525.399, 0);;animation:none"></path></g>
<g transform="matrix(-0.9648920412324389,0.2626468137371886,-0.2626468137371886,-0.9648920412324389,2012.7608003975977,693.9545766657183)" style="transform:matrix(-0.964892, 0.262647, -0.262647, -0.964892, 2012.76, 693.955);;animation:none"><path stroke-width="5.688679245283019" stroke-opacity="0" stroke="rgb(255, 40, 37)" fill="none" d="M -1920 569.81 S -1399.31 520.053 -1200 520.053 S -568.223 545.091 -480 545.091 S 9.52997 489.81 240 489.81 S 810.667 538.447 960 538.447 S 1535.64 503.746 1680 503.746 S 2165.38 538.803 2400 538.803 S 2900.98 522.739 3120 522.739 S 3628.77 575.057 3840 575.057" transform="matrix(1,0,0,1,498.0100402832031,0)" style="fill:none;stroke:rgb(255, 40, 37);transform:matrix(1, 0, 0, 1, 498.01, 0);;animation:none"></path></g>
<g transform="matrix(-0.9668714545998358,0.255263766093031,-0.255263766093031,-0.9668714545998358,2011.1060997896368,701.9953899405111)" style="transform:matrix(-0.966871, 0.255264, -0.255264, -0.966871, 2011.11, 701.995);;animation:none"><path stroke-width="5.60377358490566" stroke-opacity="0" stroke="rgb(255, 48, 32)" fill="none" d="M -1920 541.388 S -1320.42 491.186 -1200 491.186 S -696.435 532.545 -480 532.545 S 89.4288 517.425 240 517.425 S 785.294 559.189 960 559.189 S 1485.51 539.713 1680 539.713 S 2299.1 578.555 2400 578.555 S 2899.05 559.754 3120 559.754 S 3609.91 609.915 3840 609.915" transform="matrix(1,0,0,1,469.7061462402344,0)" style="fill:none;stroke:rgb(255, 48, 32);transform:matrix(1, 0, 0, 1, 469.706, 0);;animation:none"></path></g>
<g transform="matrix(-0.9686196699751355,0.24854765124068204,-0.24854765124068204,-0.9686196699751355,2009.5505772485185,709.284625901973)" style="transform:matrix(-0.96862, 0.248548, -0.248548, -0.96862, 2009.55, 709.285);;animation:none"><path stroke-width="5.518867924528302" stroke-opacity="0" stroke="rgb(255, 57, 28)" fill="none" d="M -1920 531.019 S -1401.42 509.686 -1200 509.686 S -647.101 548.106 -480 548.106 S 40.4342 523.352 240 523.352 S 745.856 564.352 960 564.352 S 1462.07 536.134 1680 536.134 S 2307.66 565.54 2400 565.54 S 2987.84 525.048 3120 525.048 S 3602.94 556.134 3840 556.134" transform="matrix(1,0,0,1,440.5146484375,0)" style="fill:none;stroke:rgb(255, 57, 28);transform:matrix(1, 0, 0, 1, 440.515, 0);;animation:none"></path></g>
<g transform="matrix(-0.9701568539513133,0.2424782025900269,-0.2424782025900269,-0.9701568539513133,2008.1038343403588,715.8514506911315)" style="transform:matrix(-0.970157, 0.242478, -0.242478, -0.970157, 2008.1, 715.851);;animation:none"><path stroke-width="5.433962264150943" stroke-opacity="0" stroke="rgb(255, 65, 24)" fill="none" d="M -1920 575.451 S -1316.21 528.912 -1200 528.912 S -703.776 584.167 -480 584.167 S -20.7938 563.185 240 563.185 S 819.667 594.694 960 594.694 S 1406.59 550.731 1680 550.731 S 2224.78 589.343 2400 589.343 S 2982.47 552.476 3120 552.476 S 3696.34 569.476 3840 569.476" transform="matrix(1,0,0,1,410.45733642578125,0)" style="fill:none;stroke:rgb(255, 65, 24);transform:matrix(1, 0, 0, 1, 410.457, 0);;animation:none"></path></g>
<g transform="matrix(-0.9715014291288758,0.23703369633989158,-0.23703369633989158,-0.9715014291288758,2006.7730967513785,721.7255896392578)" style="transform:matrix(-0.971501, 0.237034, -0.237034, -0.971501, 2006.77, 721.726);;animation:none"><path stroke-width="5.349056603773585" stroke-opacity="0" stroke="rgb(255, 72, 19)" fill="none" d="M -1920 575.419 S -1403.66 524.539 -1200 524.539 S -566.609 550.559 -480 550.559 S 4.75854 495.419 240 495.419 S 816.842 545.739 960 545.739 S 1537.32 511.39 1680 511.39 S 2164.19 547.92 2400 547.92 S 2900.49 533.891 3120 533.891 S 3633.89 587.051 3840 587.051" transform="matrix(1,0,0,1,379.565673828125,0)" style="fill:none;stroke:rgb(255, 72, 19);transform:matrix(1, 0, 0, 1, 379.566, 0);;animation:none"></path></g>
<g transform="matrix(-0.9726706349694286,0.2321892242722918,-0.2321892242722918,-0.9726706349694286,2005.56292105776,726.9392554363798)" style="transform:matrix(-0.972671, 0.232189, -0.232189, -0.972671, 2005.56, 726.939);;animation:none"><path stroke-width="5.264150943396227" stroke-opacity="0" stroke="rgb(255, 80, 16)" fill="none" d="M -1920 539.552 S -1308.61 488.403 -1200 488.403 S -694.1 529.573 -480 529.573 S 83.938 514.516 240 514.516 S 791.984 557.984 960 557.984 S 1482.61 540.338 1680 540.338 S 2309.58 580.316 2400 580.316 S 2902.71 560.884 3120 560.884 S 3602.58 611.487 3840 611.487" transform="matrix(1,0,0,1,347.87298583984375,0)" style="fill:none;stroke:rgb(255, 80, 16);transform:matrix(1, 0, 0, 1, 347.873, 0);;animation:none"></path></g>
<g transform="matrix(-0.973679648909423,0.2279209101851402,-0.2279209101851402,-0.973679648909423,2004.4763812071913,731.5226771721526)" style="transform:matrix(-0.97368, 0.227921, -0.227921, -0.97368, 2004.48, 731.523);;animation:none"><path stroke-width="5.179245283018868" stroke-opacity="0" stroke="rgb(255, 86, 12)" fill="none" d="M -1920 528.009 S -1404.52 507.971 -1200 507.971 S -650.931 545.602 -480 545.602 S 42.9694 522.933 240 522.933 S 739.828 563.933 960 563.933 S 1459.26 536.391 1680 536.391 S 2316.73 565.572 2400 565.572 S 2994.04 524.797 3120 524.797 S 3605.2 556.391 3840 556.391" transform="matrix(1,0,0,1,315.4324951171875,0)" style="fill:none;stroke:rgb(255, 86, 12);transform:matrix(1, 0, 0, 1, 315.432, 0);;animation:none"></path></g>
<g transform="matrix(-0.9745426120120676,0.22420235808906377,-0.22420235808906377,-0.9745426120120676,2003.5143429514692,735.5080039183093)" style="transform:matrix(-0.974543, 0.224202, -0.224202, -0.974543, 2003.51, 735.508);;animation:none"><path stroke-width="5.09433962264151" stroke-opacity="0" stroke="rgb(255, 91, 9)" fill="none" d="M -1920 577.265 S -1311.97 529.28 -1200 529.28 S -705.67 584.385 -480 584.385 S -22.09 562.805 240 562.805 S 816.925 594.015 960 594.015 S 1406.24 548.855 1680 548.855 S 2226.67 586.52 2400 586.52 S 2986.31 550.75 3120 550.75 S 3701.43 567.75 3840 567.75" transform="matrix(1,0,0,1,282.28973388671875,0)" style="fill:none;stroke:rgb(255, 91, 9);transform:matrix(1, 0, 0, 1, 282.29, 0);;animation:none"></path></g>
<g transform="matrix(-0.9752720935132929,0.22100756460854193,-0.22100756460854193,-0.9752720935132929,2002.6763521317741,738.9262510024503)" style="transform:matrix(-0.975272, 0.221008, -0.221008, -0.975272, 2002.68, 738.926);;animation:none"><path stroke-width="5.009433962264151" stroke-opacity="0" stroke="rgb(255, 96, 7)" fill="none" d="M -1920 578.91 S -1406.37 527.331 -1200 527.331 S -565.605 553.962 -480 553.962 S 1.78885 498.91 240 498.91 S 820.685 550.278 960 550.278 S 1538.37 516.147 1680 516.147 S 2163.45 553.594 2400 553.594 S 2900.18 540.831 3120 540.831 S 3637.08 594.516 3840 594.516" transform="matrix(1,0,0,1,248.49859619140625,0)" style="fill:none;stroke:rgb(255, 96, 7);transform:matrix(1, 0, 0, 1, 248.499, 0);;animation:none"></path></g>
<g transform="matrix(-0.9758789622724763,0.2183122786148201,-0.2183122786148201,-0.9758789622724763,2001.961165934613,741.80593286397)" style="transform:matrix(-0.975879, 0.218312, -0.218312, -0.975879, 2001.96, 741.806);;animation:none"><path stroke-width="4.9245283018867925" stroke-opacity="0" stroke="rgb(255, 100, 5)" fill="none" d="M -1920 538.452 S -1301.55 486.737 -1200 486.737 S -692.702 527.794 -480 527.794 S 80.6511 512.775 240 512.775 S 795.988 557.263 960 557.263 S 1480.87 540.712 1680 540.712 S 2315.85 581.371 2400 581.371 S 2904.9 561.56 3120 561.56 S 3598.2 612.428 3840 612.428" transform="matrix(1,0,0,1,214.1314697265625,0)" style="fill:none;stroke:rgb(255, 100, 5);transform:matrix(1, 0, 0, 1, 214.131, 0);;animation:none"></path></g>
<g transform="matrix(-0.9763730692713823,0.2160917157171474,-0.2160917157171474,-0.9763730692713823,2001.3663076183336,744.1755857657091)" style="transform:matrix(-0.976373, 0.216092, -0.216092, -0.976373, 2001.37, 744.176);;animation:none"><path stroke-width="4.839622641509434" stroke-opacity="0" stroke="rgb(255, 103, 3)" fill="none" d="M -1920 526.289 S -1406.29 506.991 -1200 506.991 S -653.12 544.172 -480 544.172 S 44.4175 522.693 240 522.693 S 736.385 563.693 960 563.693 S 1457.65 536.538 1680 536.538 S 2321.92 565.59 2400 565.59 S 2997.58 524.654 3120 524.654 S 3606.48 556.538 3840 556.538" transform="matrix(1,0,0,1,179.2540283203125,0)" style="fill:none;stroke:rgb(255, 103, 3);transform:matrix(1, 0, 0, 1, 179.254, 0);;animation:none"></path></g>
<g transform="matrix(-0.9767629704578104,0.21432241959821832,-0.21432241959821832,-0.9767629704578104,2000.8886966760401,746.0618474611462)" style="transform:matrix(-0.976763, 0.214322, -0.214322, -0.976763, 2000.89, 746.062);;animation:none"><path stroke-width="4.754716981132075" stroke-opacity="0" stroke="rgb(255, 105, 2)" fill="none" d="M -1920 578.243 S -1309.69 529.479 -1200 529.479 S -706.691 584.503 -480 584.503 S -22.7884 562.601 240 562.601 S 815.448 593.65 960 593.65 S 1406.06 547.845 1680 547.845 S 2227.69 584.999 2400 584.999 S 2988.37 549.82 3120 549.82 S 3704.17 566.82 3840 566.82" transform="matrix(1,0,0,1,143.9415283203125,0)" style="fill:none;stroke:rgb(255, 105, 2);transform:matrix(1, 0, 0, 1, 143.942, 0);;animation:none"></path></g>
<g transform="matrix(-0.9770562277502071,0.21298151988972056,-0.21298151988972056,-0.9770562277502071,2000.5245804670992,747.490314567593)" style="transform:matrix(-0.977056, 0.212982, -0.212982, -0.977056, 2000.52, 747.49);;animation:none"><path stroke-width="4.669811320754717" stroke-opacity="0" stroke="rgb(255, 107, 1)" fill="none" d="M -1920 580.653 S -1407.72 528.725 -1200 528.725 S -565.103 555.662 -480 555.662 S 0.305817 500.653 240 500.653 S 822.604 552.545 960 552.545 S 1538.89 518.522 1680 518.522 S 2163.08 556.428 2400 556.428 S 2900.03 544.298 3120 544.298 S 3638.67 598.244 3840 598.244" transform="matrix(1,0,0,1,108.26971435546875,0)" style="fill:none;stroke:rgb(255, 107, 1);transform:matrix(1, 0, 0, 1, 108.27, 0);;animation:none"></path></g>
<g transform="matrix(-0.9772591250776916,0.21204858512233643,-0.21204858512233643,-0.9772591250776916,2000.2701538109889,748.4836270074655)" style="transform:matrix(-0.977259, 0.212049, -0.212049, -0.977259, 2000.27, 748.484);;animation:none"><path stroke-width="4.584905660377358" stroke-opacity="0" stroke="rgb(255, 108, 0)" fill="none" d="M -1920 537.957 S -1298.37 485.987 -1200 485.987 S -692.073 526.993 -480 526.993 S 79.1709 511.991 240 511.991 S 797.792 556.938 960 556.938 S 1480.09 540.881 1680 540.881 S 2318.67 581.846 2400 581.846 S 2905.89 561.865 3120 561.865 S 3596.23 612.852 3840 612.852" transform="matrix(1,0,0,1,72.3330078125,0)" style="fill:none;stroke:rgb(255, 108, 0);transform:matrix(1, 0, 0, 1, 72.333, 0);;animation:none"></path></g>
<g transform="matrix(-0.9773774506906091,0.21150252689158577,-0.21150252689158577,-0.9773774506906091,2000.1208193612833,749.064816691606)" style="transform:matrix(-0.977377, 0.211503, -0.211503, -0.977377, 2000.12, 749.065);;animation:none"><path stroke-width="4.5" stroke-opacity="0" stroke="rgb(255, 109, 0)" fill="none" d="M -1920 525.623 S -1406.97 506.612 -1200 506.612 S -653.967 543.619 -480 543.619 S 44.9783 522.601 240 522.601 S 735.052 563.601 960 563.601 S 1457.02 536.595 1680 536.595 S 2323.92 565.597 2400 565.597 S 2998.95 524.599 3120 524.599 S 3606.98 556.595 3840 556.595" transform="matrix(1,0,0,1,36.21466064453125,0)" style="fill:none;stroke:rgb(255, 109, 0);transform:matrix(1, 0, 0, 1, 36.2147, 0);;animation:none"></path></g>
<g transform="matrix(-0.9774159055419339,0.21132474439506893,-0.21132474439506893,-0.9774159055419339,2000.0721337464822,749.254003899175)" style="transform:matrix(-0.977416, 0.211325, -0.211325, -0.977416, 2000.07, 749.254);;animation:none"><path stroke-width="4.415094339622642" stroke-opacity="0" stroke="rgb(255, 109, 0)" fill="none" d="M -1920 578.539 S -1309 529.539 -1200 529.539 S -707 584.539 -480 584.539 S -23 562.539 240 562.539 S 815 593.539 960 593.539 S 1406 547.539 1680 547.539 S 2228 584.539 2400 584.539 S 2989 549.539 3120 549.539 S 3705 566.539 3840 566.539" transform="matrix(1,0,0,1,0,0)" style="fill:none;stroke:rgb(255, 109, 0);transform:matrix(1, 0, 0, 1, 0, 0);;animation:none"></path></g>
<g transform="matrix(-0.9773774506906091,0.21150252689158577,-0.21150252689158577,-0.9773774506906091,2000.1208193612833,749.064816691606)" style="transform:matrix(-0.977377, 0.211503, -0.211503, -0.977377, 2000.12, 749.065);;animation:none"><path stroke-width="4.330188679245283" stroke-opacity="0" stroke="rgb(255, 109, 0)" fill="none" d="M -1920 580.974 S -1407.97 528.982 -1200 528.982 S -565.011 555.975 -480 555.975 S 0.0328369 500.974 240 500.974 S 822.958 552.962 960 552.962 S 1538.99 518.96 1680 518.96 S 2163.01 556.95 2400 556.95 S 2900 544.936 3120 544.936 S 3638.96 598.93 3840 598.93" transform="matrix(1,0,0,1,-36.20989990234375,0)" style="fill:none;stroke:rgb(255, 109, 0);transform:matrix(1, 0, 0, 1, -36.2099, 0);;animation:none"></path></g>
<g transform="matrix(-0.9772591250776916,0.21204858512233643,-0.21204858512233643,-0.9772591250776916,2000.2701538109889,748.4836270074655)" style="transform:matrix(-0.977259, 0.212049, -0.212049, -0.977259, 2000.27, 748.484);;animation:none"><path stroke-width="4.245283018867925" stroke-opacity="0" stroke="rgb(255, 110, 1)" fill="none" d="M -1920 537.957 S -1298.37 485.987 -1200 485.987 S -692.073 526.993 -480 526.993 S 79.1709 511.991 240 511.991 S 797.792 556.938 960 556.938 S 1480.09 540.881 1680 540.881 S 2318.67 581.846 2400 581.846 S 2905.89 561.865 3120 561.865 S 3596.23 612.852 3840 612.852" transform="matrix(1,0,0,1,-72.328125,0)" style="fill:none;stroke:rgb(255, 110, 1);transform:matrix(1, 0, 0, 1, -72.3281, 0);;animation:none"></path></g>
<g transform="matrix(-0.9770562277502071,0.21298151988972056,-0.21298151988972056,-0.9770562277502071,2000.5245804670992,747.490314567593)" style="transform:matrix(-0.977056, 0.212982, -0.212982, -0.977056, 2000.52, 747.49);;animation:none"><path stroke-width="4.160377358490566" stroke-opacity="0" stroke="rgb(255, 111, 1)" fill="none" d="M -1920 525.837 S -1406.75 506.734 -1200 506.734 S -653.694 543.797 -480 543.797 S 44.7976 522.63 240 522.63 S 735.481 563.63 960 563.63 S 1457.22 536.577 1680 536.577 S 2323.28 565.595 2400 565.595 S 2998.51 524.617 3120 524.617 S 3606.82 556.577 3840 556.577" transform="matrix(1,0,0,1,-108.264892578125,0)" style="fill:none;stroke:rgb(255, 111, 1);transform:matrix(1, 0, 0, 1, -108.265, 0);;animation:none"></path></g>
<g transform="matrix(-0.9767630275352885,0.21432215947049685,-0.21432215947049685,-0.9767630275352885,2000.8886262189212,746.0621246665644)" style="transform:matrix(-0.976763, 0.214322, -0.214322, -0.976763, 2000.89, 746.062);;animation:none"><path stroke-width="4.0754716981132075" stroke-opacity="0" stroke="rgb(255, 112, 2)" fill="none" d="M -1920 578.243 S -1309.69 529.479 -1200 529.479 S -706.691 584.503 -480 584.503 S -22.7884 562.601 240 562.601 S 815.448 593.649 960 593.649 S 1406.06 547.845 1680 547.845 S 2227.69 584.999 2400 584.999 S 2988.37 549.82 3120 549.82 S 3704.17 566.82 3840 566.82" transform="matrix(1,0,0,1,-143.936767578125,0)" style="fill:none;stroke:rgb(255, 112, 2);transform:matrix(1, 0, 0, 1, -143.937, 0);;animation:none"></path></g>
<g transform="matrix(-0.9763731268200526,0.21609145569326282,-0.21609145569326282,-0.9763731268200526,2001.3662376635566,744.175863098323)" style="transform:matrix(-0.976373, 0.216091, -0.216091, -0.976373, 2001.37, 744.176);;animation:none"><path stroke-width="3.990566037735849" stroke-opacity="0.017857142857142856" stroke="rgb(255, 114, 4)" fill="none" d="M -1920 579.978 S -1407.2 528.185 -1200 528.185 S -565.298 555.004 -480 555.004 S 0.880127 499.978 240 499.978 S 821.861 551.667 960 551.667 S 1538.69 517.602 1680 517.602 S 2163.22 555.331 2400 555.331 S 2900.09 542.955 3120 542.955 S 3638.06 596.8 3840 596.8" transform="matrix(1,0,0,1,-179.249267578125,0)" style="fill:none;stroke:rgb(255, 114, 4);transform:matrix(1, 0, 0, 1, -179.249, 0);;animation:none"></path></g>
<g transform="matrix(-0.9758790204125183,0.21831201872252412,-0.21831201872252412,-0.9758790204125183,2001.9610966109128,741.8062103550044)" style="transform:matrix(-0.975879, 0.218312, -0.218312, -0.975879, 2001.96, 741.806);;animation:none"><path stroke-width="3.9056603773584904" stroke-opacity="0.03571428571428571" stroke="rgb(255, 116, 5)" fill="none" d="M -1920 538.452 S -1301.55 486.737 -1200 486.737 S -692.702 527.794 -480 527.794 S 80.6511 512.775 240 512.775 S 795.988 557.263 960 557.263 S 1480.87 540.712 1680 540.712 S 2315.85 581.371 2400 581.371 S 2904.9 561.56 3120 561.56 S 3598.2 612.428 3840 612.428" transform="matrix(1,0,0,1,-214.126953125,0)" style="fill:none;stroke:rgb(255, 116, 5);transform:matrix(1, 0, 0, 1, -214.127, 0);;animation:none"></path></g>
<g transform="matrix(-0.9752721523711331,0.22100730487786477,-0.22100730487786477,-0.9752721523711331,2002.6762835749796,738.9265286839504)" style="transform:matrix(-0.975272, 0.221007, -0.221007, -0.975272, 2002.68, 738.927);;animation:none"><path stroke-width="3.8207547169811322" stroke-opacity="0.05357142857142857" stroke="rgb(255, 120, 8)" fill="none" d="M -1920 527.003 S -1405.55 507.398 -1200 507.398 S -652.211 544.766 -480 544.766 S 43.8162 522.793 240 522.793 S 737.815 563.793 960 563.793 S 1458.32 536.477 1680 536.477 S 2319.76 565.582 2400 565.582 S 2996.11 524.714 3120 524.714 S 3605.95 556.477 3840 556.477" transform="matrix(1,0,0,1,-248.4937744140625,0)" style="fill:none;stroke:rgb(255, 120, 8);transform:matrix(1, 0, 0, 1, -248.494, 0);;animation:none"></path></g>
<g transform="matrix(-0.9745426717207326,0.22420209855265918,-0.22420209855265918,-0.9745426717207326,2003.5142753050088,735.5082818229799)" style="transform:matrix(-0.974543, 0.224202, -0.224202, -0.974543, 2003.51, 735.508);;animation:none"><path stroke-width="3.7358490566037736" stroke-opacity="0.07142857142857142" stroke="rgb(255, 123, 10)" fill="none" d="M -1920 577.265 S -1311.97 529.28 -1200 529.28 S -705.67 584.385 -480 584.385 S -22.0901 562.805 240 562.805 S 816.925 594.015 960 594.015 S 1406.24 548.855 1680 548.855 S 2226.67 586.52 2400 586.52 S 2986.31 550.75 3120 550.75 S 3701.43 567.75 3840 567.75" transform="matrix(1,0,0,1,-282.28515625,0)" style="fill:none;stroke:rgb(255, 123, 10);transform:matrix(1, 0, 0, 1, -282.285, 0);;animation:none"></path></g>
<g transform="matrix(-0.9736797703073048,0.22792039157195698,-0.22792039157195698,-0.9736797703073048,2004.47624803691,731.5232334938886)" style="transform:matrix(-0.97368, 0.22792, -0.22792, -0.97368, 2004.48, 731.523);;animation:none"><path stroke-width="3.650943396226415" stroke-opacity="0.08928571428571429" stroke="rgb(255, 128, 13)" fill="none" d="M -1920 577.406 S -1405.2 526.128 -1200 526.128 S -566.038 552.496 -480 552.496 S 3.06842 497.406 240 497.406 S 819.029 548.323 960 548.323 S 1537.92 514.097 1680 514.097 S 2163.77 551.149 2400 551.149 S 2900.32 537.841 3120 537.841 S 3635.71 591.299 3840 591.299" transform="matrix(1,0,0,1,-315.427978515625,0)" style="fill:none;stroke:rgb(255, 128, 13);transform:matrix(1, 0, 0, 1, -315.428, 0);;animation:none"></path></g>
<g transform="matrix(-0.9726707586407523,0.23218870619654086,-0.23218870619654086,-0.9726707586407523,2005.5627903287566,726.939812336843)" style="transform:matrix(-0.972671, 0.232189, -0.232189, -0.972671, 2005.56, 726.94);;animation:none"><path stroke-width="3.5660377358490565" stroke-opacity="0.10714285714285714" stroke="rgb(255, 133, 17)" fill="none" d="M -1920 539.552 S -1308.61 488.403 -1200 488.403 S -694.1 529.573 -480 529.573 S 83.9379 514.516 240 514.516 S 791.984 557.984 960 557.984 S 1482.61 540.338 1680 540.338 S 2309.58 580.316 2400 580.316 S 2902.71 560.884 3120 560.884 S 3602.58 611.487 3840 611.487" transform="matrix(1,0,0,1,-347.8685302734375,0)" style="fill:none;stroke:rgb(255, 133, 17);transform:matrix(1, 0, 0, 1, -347.869, 0);;animation:none"></path></g>
<g transform="matrix(-0.9715015553805214,0.23703317888689707,-0.23703317888689707,-0.9715015553805214,2006.7729687993415,721.7261471842999)" style="transform:matrix(-0.971502, 0.237033, -0.237033, -0.971502, 2006.77, 721.726);;animation:none"><path stroke-width="3.481132075471698" stroke-opacity="0.125" stroke="rgb(255, 139, 21)" fill="none" d="M -1920 529.337 S -1403.15 508.727 -1200 508.727 S -649.242 546.707 -480 546.707 S 41.8511 523.118 240 523.118 S 742.488 564.118 960 564.118 S 1460.5 536.278 1680 536.278 S 2312.73 565.558 2400 565.558 S 2991.3 524.908 3120 524.908 S 3604.2 556.278 3840 556.278" transform="matrix(1,0,0,1,-379.561279296875,0)" style="fill:none;stroke:rgb(255, 139, 21);transform:matrix(1, 0, 0, 1, -379.561, 0);;animation:none"></path></g>
<g transform="matrix(-0.970157047678558,0.24247742748475407,-0.24247742748475407,-0.970157047678558,2008.1036471053249,715.8522880718617)" style="transform:matrix(-0.970157, 0.242477, -0.242477, -0.970157, 2008.1, 715.852);;animation:none"><path stroke-width="3.3962264150943398" stroke-opacity="0.14285714285714285" stroke="rgb(255, 145, 26)" fill="none" d="M -1920 575.451 S -1316.21 528.912 -1200 528.912 S -703.776 584.167 -480 584.167 S -20.7938 563.185 240 563.185 S 819.667 594.694 960 594.694 S 1406.59 550.731 1680 550.731 S 2224.78 589.343 2400 589.343 S 2982.47 552.476 3120 552.476 S 3696.34 569.476 3840 569.476" transform="matrix(1,0,0,1,-410.4532470703125,0)" style="fill:none;stroke:rgb(255, 145, 26);transform:matrix(1, 0, 0, 1, -410.453, 0);;animation:none"></path></g>
<g transform="matrix(-0.9686198685515565,0.24854687736353784,-0.24854687736353784,-0.9686198685515565,2009.5503952600377,709.2854644385782)" style="transform:matrix(-0.96862, 0.248547, -0.248547, -0.96862, 2009.55, 709.285);;animation:none"><path stroke-width="3.311320754716981" stroke-opacity="0.16071428571428573" stroke="rgb(255, 151, 30)" fill="none" d="M -1920 572.903 S -1401.71 522.526 -1200 522.526 S -567.334 548.106 -480 548.106 S 6.89929 492.903 240 492.903 S 814.072 542.468 960 542.468 S 1536.56 507.96 1680 507.96 S 2164.72 543.83 2400 543.83 S 2900.71 528.887 3120 528.887 S 3631.59 581.67 3840 581.67" transform="matrix(1,0,0,1,-440.5107421875,0)" style="fill:none;stroke:rgb(255, 151, 30);transform:matrix(1, 0, 0, 1, -440.511, 0);;animation:none"></path></g>
<g transform="matrix(-0.9668716585420861,0.2552629936126184,-0.2552629936126184,-0.9668716585420861,2011.1059236248784,701.9962297199008)" style="transform:matrix(-0.966872, 0.255263, -0.255263, -0.966872, 2011.11, 701.996);;animation:none"><path stroke-width="3.2264150943396226" stroke-opacity="0.17857142857142858" stroke="rgb(255, 158, 35)" fill="none" d="M -1920 541.388 S -1320.42 491.186 -1200 491.186 S -696.435 532.545 -480 532.545 S 89.4286 517.425 240 517.425 S 785.294 559.189 960 559.189 S 1485.51 539.713 1680 539.713 S 2299.1 578.555 2400 578.555 S 2899.05 559.754 3120 559.754 S 3609.9 609.915 3840 609.915" transform="matrix(1,0,0,1,-469.7022705078125,0)" style="fill:none;stroke:rgb(255, 158, 35);transform:matrix(1, 0, 0, 1, -469.702, 0);;animation:none"></path></g>
<g transform="matrix(-0.9648923210202014,0.2626457858718633,-0.2626457858718633,-0.9648923210202014,2012.7605740766955,693.9556981342382)" style="transform:matrix(-0.964892, 0.262646, -0.262646, -0.964892, 2012.76, 693.956);;animation:none"><path stroke-width="3.141509433962264" stroke-opacity="0.19642857142857142" stroke="rgb(255, 164, 40)" fill="none" d="M -1920 533.086 S -1399.29 510.863 -1200 510.863 S -644.47 549.825 -480 549.825 S 38.6935 523.64 240 523.64 S 749.995 564.64 960 564.64 S 1464.01 535.958 1680 535.958 S 2301.44 565.519 2400 565.519 S 2983.58 525.219 3120 525.219 S 3601.39 555.958 3840 555.958" transform="matrix(1,0,0,1,-498.0062255859375,0)" style="fill:none;stroke:rgb(255, 164, 40);transform:matrix(1, 0, 0, 1, -498.006, 0);;animation:none"></path></g>
<g transform="matrix(-0.9626617036963393,0.27070730362600365,-0.27070730362600365,-0.9626617036963393,2014.5008022444065,685.1425988488238)" style="transform:matrix(-0.962662, 0.270707, -0.270707, -0.962662, 2014.5, 685.143);;animation:none"><path stroke-width="3.056603773584906" stroke-opacity="0.21428571428571427" stroke="rgb(255, 170, 44)" fill="none" d="M -1920 572.633 S -1322.8 528.34 -1200 528.34 S -700.831 583.827 -480 583.827 S -18.7794 563.775 240 563.775 S 823.928 595.749 960 595.749 S 1407.14 553.645 1680 553.645 S 2221.83 593.729 2400 593.729 S 2976.5 555.158 3120 555.158 S 3688.44 572.158 3840 572.158" transform="matrix(1,0,0,1,-525.395263671875,0)" style="fill:none;stroke:rgb(255, 170, 44);transform:matrix(1, 0, 0, 1, -525.395, 0);;animation:none"></path></g>
<g transform="matrix(-0.9601586597778362,0.279455449139267,-0.279455449139267,-0.9601586597778362,2016.3101121472798,675.5391635093317)" style="transform:matrix(-0.960159, 0.279455, -0.279455, -0.960159, 2016.31, 675.539);;animation:none"><path stroke-width="2.9716981132075473" stroke-opacity="0.23214285714285715" stroke="rgb(255, 176, 48)" fill="none" d="M -1920 566.108 S -1396.44 517.091 -1200 517.091 S -569.289 541.481 -480 541.481 S 12.6798 486.108 240 486.108 S 806.591 533.633 960 533.633 S 1534.52 498.7 1680 498.7 S 2166.17 532.785 2400 532.785 S 2901.31 515.377 3120 515.377 S 3625.39 567.139 3840 567.139" transform="matrix(1,0,0,1,-551.858154296875,0)" style="fill:none;stroke:rgb(255, 176, 48);transform:matrix(1, 0, 0, 1, -551.858, 0);;animation:none"></path></g>
<g transform="matrix(-0.9573621152235454,0.2888906027109551,-0.2888906027109551,-0.9573621152235454,2018.1684558199286,665.1348798776203)" style="transform:matrix(-0.957362, 0.288891, -0.288891, -0.957362, 2018.17, 665.135);;animation:none"><path stroke-width="2.8867924528301887" stroke-opacity="0.25" stroke="rgb(255, 181, 51)" fill="none" d="M -1920 544.084 S -1337.75 495.273 -1200 495.273 S -699.865 536.911 -480 536.911 S 97.4938 521.698 240 521.698 S 775.467 560.959 960 560.959 S 1489.78 538.794 1680 538.794 S 2283.71 575.968 2400 575.968 S 2893.67 558.094 3120 558.094 S 3620.66 607.606 3840 607.606" transform="matrix(1,0,0,1,-577.388671875,0)" style="fill:none;stroke:rgb(255, 181, 51);transform:matrix(1, 0, 0, 1, -577.389, 0);;animation:none"></path></g>
<g transform="matrix(-0.9542539777119108,0.2989972341360303,-0.2989972341360303,-0.9542539777119108,2020.0509868399329,653.9359454976959)" style="transform:matrix(-0.954254, 0.298997, -0.298997, -0.954254, 2020.05, 653.936);;animation:none"><path stroke-width="2.80188679245283" stroke-opacity="0.26785714285714285" stroke="rgb(255, 185, 54)" fill="none" d="M -1920 538.456 S -1393.77 513.922 -1200 513.922 S -637.638 554.29 -480 554.29 S 34.1721 524.387 240 524.387 S 760.746 565.387 960 565.387 S 1469.03 535.5 1680 535.5 S 2285.26 565.462 2400 565.462 S 2972.53 525.665 3120 525.665 S 3597.38 555.5 3840 555.5" transform="matrix(1,0,0,1,-601.9744873046875,0)" style="fill:none;stroke:rgb(255, 185, 54);transform:matrix(1, 0, 0, 1, -601.974, 0);;animation:none"></path></g>
<g transform="matrix(-0.9508180686382944,0.3097498996786658,-0.3097498996786658,-0.9508180686382944,2021.9299225880402,641.9589963578196)" style="transform:matrix(-0.950818, 0.30975, -0.30975, -0.950818, 2021.93, 641.959);;animation:none"><path stroke-width="2.7169811320754715" stroke-opacity="0.2857142857142857" stroke="rgb(255, 188, 57)" fill="none" d="M -1920 568.695 S -1332 527.541 -1200 527.541 S -696.719 583.353 -480 583.353 S -15.9654 564.6 240 564.6 S 829.881 597.223 960 597.223 S 1407.89 557.716 1680 557.716 S 2217.72 599.857 2400 599.857 S 2968.17 558.905 3120 558.905 S 3677.4 575.905 3840 575.905" transform="matrix(1,0,0,1,-625.616943359375,0)" style="fill:none;stroke:rgb(255, 188, 57);transform:matrix(1, 0, 0, 1, -625.617, 0);;animation:none"></path></g>
<g transform="matrix(-0.9470431544486574,0.32110631200886813,-0.32110631200886813,-0.9470431544486574,2023.7741175029812,629.2392193385151)" style="transform:matrix(-0.947043, 0.321106, -0.321106, -0.947043, 2023.77, 629.239);;animation:none"><path stroke-width="2.6320754716981134" stroke-opacity="0.30357142857142855" stroke="rgb(255, 191, 59)" fill="none" d="M -1920 556.849 S -1389.26 509.686 -1200 509.686 S -571.953 532.453 -480 532.453 S 20.5569 476.849 240 476.849 S 796.397 521.594 960 521.594 S 1531.74 486.082 1680 486.082 S 2168.14 517.734 2400 517.734 S 2902.12 496.967 3120 496.967 S 3616.93 547.339 3840 547.339" transform="matrix(1,0,0,1,-648.318115234375,0)" style="fill:none;stroke:rgb(255, 191, 59);transform:matrix(1, 0, 0, 1, -648.318, 0);;animation:none"></path></g>
<g transform="matrix(-0.9429243812297834,0.3330069237755128,-0.3330069237755128,-0.9429243812297834,2025.5502397785015,615.8314427376484)" style="transform:matrix(-0.942924, 0.333007, -0.333007, -0.942924, 2025.55, 615.831);;animation:none"><path stroke-width="2.547169811320755" stroke-opacity="0.32142857142857145" stroke="rgb(255, 193, 60)" fill="none" d="M -1920 547.667 S -1360.78 500.702 -1200 500.702 S -704.421 542.71 -480 542.71 S 108.207 527.374 240 527.374 S 762.414 563.31 960 563.31 S 1495.44 537.574 1680 537.574 S 2263.27 572.531 2400 572.531 S 2886.53 555.888 3120 555.888 S 3634.94 604.538 3840 604.538" transform="matrix(1,0,0,1,-670.085693359375,0)" style="fill:none;stroke:rgb(255, 193, 60);transform:matrix(1, 0, 0, 1, -670.086, 0);;animation:none"></path></g>
<g transform="matrix(-0.9384669222644685,0.3453691297951455,-0.3453691297951455,-0.9384669222644685,2027.2234813702523,601.8174584670019)" style="transform:matrix(-0.938467, 0.345369, -0.345369, -0.938467, 2027.22, 601.817);;animation:none"><path stroke-width="2.4622641509433962" stroke-opacity="0.3392857142857143" stroke="rgb(255, 195, 61)" fill="none" d="M -1920 545.4 S -1386.62 517.877 -1200 517.877 S -628.801 560.065 -480 560.065 S 28.3243 525.354 240 525.354 S 774.651 566.354 960 566.354 S 1475.53 534.907 1680 534.907 S 2264.34 565.39 2400 565.39 S 2958.24 526.242 3120 526.242 S 3592.18 554.907 3840 554.907" transform="matrix(1,0,0,1,-690.9208984375,0)" style="fill:none;stroke:rgb(255, 195, 61);transform:matrix(1, 0, 0, 1, -690.921, 0);;animation:none"></path></g>
<g transform="matrix(-0.9336846065775638,0.35809643315746664,-0.35809643315746664,-0.9336846065775638,2028.7606548797814,587.2965622359291)" style="transform:matrix(-0.933685, 0.358096, -0.358096, -0.933685, 2028.76, 587.297);;animation:none"><path stroke-width="2.3773584905660377" stroke-opacity="0.35714285714285715" stroke="rgb(255, 196, 62)" fill="none" d="M -1920 563.744 S -1343.56 526.536 -1200 526.536 S -691.548 582.756 -480 582.756 S -12.4275 565.636 240 565.636 S 837.365 599.076 960 599.076 S 1408.85 562.835 1680 562.835 S 2212.55 607.561 2400 607.561 S 2957.69 563.615 3120 563.615 S 3663.52 580.615 3840 580.615" transform="matrix(1,0,0,1,-710.836669921875,0)" style="fill:none;stroke:rgb(255, 196, 62);transform:matrix(1, 0, 0, 1, -710.837, 0);;animation:none"></path></g>
<g transform="matrix(-0.9286026623745767,0.3710755926099802,-0.3710755926099802,-0.9286026623745767,2030.131453721299,572.3896130277776)" style="transform:matrix(-0.928603, 0.371076, -0.371076, -0.928603, 2030.13, 572.39);;animation:none"><path stroke-width="2.292452830188679" stroke-opacity="0.375" stroke="rgb(255, 197, 63)" fill="none" d="M -1920 545.555 S -1380.5 500.652 -1200 500.652 S -575.203 521.442 -480 521.442 S 30.1654 465.555 240 465.555 S 783.962 506.908 960 506.908 S 1528.35 470.69 1680 470.69 S 2170.54 499.374 2400 499.374 S 2903.11 474.509 3120 474.509 S 3606.62 523.186 3840 523.186" transform="matrix(1,0,0,1,-729.846923828125,0)" style="fill:none;stroke:rgb(255, 197, 63);transform:matrix(1, 0, 0, 1, -729.847, 0);;animation:none"></path></g>
<g transform="matrix(-0.9232599076561597,0.38417592703700126,-0.38417592703700126,-0.9232599076561597,2031.3102202182295,557.2407555809197)" style="transform:matrix(-0.92326, 0.384176, -0.384176, -0.92326, 2031.31, 557.241);;animation:none"><path stroke-width="2.207547169811321" stroke-opacity="0.39285714285714285" stroke="rgb(255, 197, 63)" fill="none" d="M -1920 551.898 S -1387.97 507.115 -1200 507.115 S -709.802 549.558 -480 549.558 S 120.859 534.077 240 534.077 S 746.999 566.086 960 566.086 S 1502.13 536.133 1680 536.133 S 2239.13 568.473 2400 568.473 S 2878.09 553.284 3120 553.284 S 3651.81 600.916 3840 600.916" transform="matrix(1,0,0,1,-747.959716796875,0)" style="fill:none;stroke:rgb(255, 197, 63);transform:matrix(1, 0, 0, 1, -747.96, 0);;animation:none"></path></g>
<g transform="matrix(-0.9177039982000883,0.39726486339414946,-0.39726486339414946,-0.9177039982000883,2032.2788699963676,542.000206274959)" style="transform:matrix(-0.917704, 0.397265, -0.397265, -0.917704, 2032.28, 542);;animation:none"><path stroke-width="2.1226415094339623" stroke-opacity="0.4107142857142857" stroke="rgb(255, 197, 63)" fill="none" d="M -1920 553.325 S -1378.46 522.391 -1200 522.391 S -618.718 566.655 -480 566.655 S 21.6515 526.457 240 526.457 S 790.518 567.457 960 567.457 S 1482.94 534.231 1680 534.231 S 2240.46 565.306 2400 565.306 S 2941.93 526.901 3120 526.901 S 3586.25 554.231 3840 554.231" transform="matrix(1,0,0,1,-765.1923828125,0)" style="fill:none;stroke:rgb(255, 197, 63);transform:matrix(1, 0, 0, 1, -765.192, 0);;animation:none"></path></g>
<g transform="matrix(-0.9119918196649153,0.4102083871208349,-0.4102083871208349,-0.9119918196649153,2033.0274852770006,526.8240095326552)" style="transform:matrix(-0.911992, 0.410208, -0.410208, -0.911992, 2033.03, 526.824);;animation:none"><path stroke-width="2.0377358490566038" stroke-opacity="0.42857142857142855" stroke="rgb(254, 197, 63)" fill="none" d="M -1920 558.296 S -1356.29 525.431 -1200 525.431 S -685.857 582.1 -480 582.1 S -8.53397 566.777 240 566.777 S 845.601 601.115 960 601.115 S 1409.89 568.468 1680 568.468 S 2206.86 616.04 2400 616.04 S 2946.16 568.799 3120 568.799 S 3648.25 585.799 3840 585.799" transform="matrix(1,0,0,1,-781.5599365234375,0)" style="fill:none;stroke:rgb(254, 197, 63);transform:matrix(1, 0, 0, 1, -781.56, 0);;animation:none"></path></g>
<g transform="matrix(-0.9061856323973956,0.4228801244283448,-0.4228801244283448,-0.9061856323973956,2033.5549870137477,511.86346254813503)" style="transform:matrix(-0.906186, 0.42288, -0.42288, -0.906186, 2033.55, 511.863);;animation:none"><path stroke-width="1.9528301886792452" stroke-opacity="0.44642857142857145" stroke="rgb(253, 196, 64)" fill="none" d="M -1920 533.585 S -1371.21 491.079 -1200 491.079 S -578.647 509.772 -480 509.772 S 40.3484 453.585 240 453.585 S 770.784 491.344 960 491.344 S 1524.76 454.378 1680 454.378 S 2173.09 479.917 2400 479.917 S 2904.15 450.71 3120 450.71 S 3595.68 497.589 3840 497.589" transform="matrix(1,0,0,1,-797.0811767578125,0)" style="fill:none;stroke:rgb(253, 196, 64);transform:matrix(1, 0, 0, 1, -797.081, 0);;animation:none"></path></g>
<g transform="matrix(-0.90035247505483,0.43516137312799463,-0.43516137312799463,-0.90035247505483,2033.868577213766,497.2647985360258)" style="transform:matrix(-0.900352, 0.435161, -0.435161, -0.900352, 2033.87, 497.265);;animation:none"><path stroke-width="1.8679245283018868" stroke-opacity="0.4642857142857143" stroke="rgb(250, 194, 66)" fill="none" d="M -1920 556.211 S -1415.7 513.653 -1200 513.653 S -715.289 556.541 -480 556.541 S 133.76 540.912 240 540.912 S 731.281 568.917 960 568.917 S 1508.95 534.664 1680 534.664 S 2214.52 564.334 2400 564.334 S 2869.49 550.628 3120 550.628 S 3669.01 597.223 3840 597.223" transform="matrix(1,0,0,1,-811.7689208984375,0)" style="fill:none;stroke:rgb(250, 194, 66);transform:matrix(1, 0, 0, 1, -811.769, 0);;animation:none"></path></g>
<g transform="matrix(-0.8945561623811408,0.4469555596990892,-0.4469555596990892,-0.8945561623811408,2033.9830178810066,483.15145487539365)" style="transform:matrix(-0.894556, 0.446956, -0.446956, -0.894556, 2033.98, 483.151);;animation:none"><path stroke-width="1.7830188679245282" stroke-opacity="0.48214285714285715" stroke="rgb(247, 192, 68)" fill="none" d="M -1920 561.096 S -1370.46 526.818 -1200 526.818 S -608.829 573.118 -480 573.118 S 15.1073 527.539 240 527.539 S 806.078 568.539 960 568.539 S 1490.21 533.568 1680 533.568 S 2217.05 565.225 2400 565.225 S 2925.93 527.546 3120 527.546 S 3580.43 553.568 3840 553.568" transform="matrix(1,0,0,1,-825.642822265625,0)" style="fill:none;stroke:rgb(247, 192, 68);transform:matrix(1, 0, 0, 1, -825.643, 0);;animation:none"></path></g>
<g transform="matrix(-0.8888567369253667,0.4581852258883839,-0.4581852258883839,-0.8888567369253667,2033.9186537136088,469.62670197671554)" style="transform:matrix(-0.888857, 0.458185, -0.458185, -0.888857, 2033.92, 469.627);;animation:none"><path stroke-width="1.6981132075471699" stroke-opacity="0.5" stroke="rgb(242, 189, 71)" fill="none" d="M -1920 553.155 S -1368.3 524.388 -1200 524.388 S -680.488 581.481 -480 581.481 S -4.86011 567.853 240 567.853 S 853.373 603.039 960 603.039 S 1410.88 573.784 1680 573.784 S 2201.49 624.04 2400 624.04 S 2935.28 573.691 3120 573.691 S 3633.84 590.691 3840 590.691" transform="matrix(1,0,0,1,-838.7222900390625,0)" style="fill:none;stroke:rgb(242, 189, 71);transform:matrix(1, 0, 0, 1, -838.722, 0);;animation:none"></path></g>
<g transform="matrix(-0.8833099102313305,0.4687895076546816,-0.4687895076546816,-0.8833099102313305,2033.6996617578066,456.77579442789136)" style="transform:matrix(-0.88331, 0.46879, -0.46879, -0.88331, 2033.7, 456.776);;animation:none"><path stroke-width="1.6132075471698113" stroke-opacity="0.5178571428571429" stroke="rgb(236, 186, 74)" fill="none" d="M -1920 522.709 S -1362.78 482.38 -1200 482.38 S -581.777 499.168 -480 499.168 S 49.6014 442.709 240 442.709 S 758.81 477.202 960 477.202 S 1521.49 439.555 1680 439.555 S 2175.4 462.237 2400 462.237 S 2905.11 429.084 3120 429.084 S 3585.75 474.33 3840 474.33" transform="matrix(1,0,0,1,-851.0218505859375,0)" style="fill:none;stroke:rgb(236, 186, 74);transform:matrix(1, 0, 0, 1, -851.022, 0);;animation:none"></path></g>
<g transform="matrix(-0.8779617613359448,0.47873076528659125,-0.47873076528659125,-0.8779617613359448,2033.3521543680008,444.6570534081298)" style="transform:matrix(-0.877962, 0.478731, -0.478731, -0.877962, 2033.35, 444.657);;animation:none"><path stroke-width="1.528301886792453" stroke-opacity="0.5357142857142857" stroke="rgb(229, 182, 78)" fill="none" d="M -1920 559.992 S -1440 519.383 -1200 519.383 S -720.097 562.661 -480 562.661 S 145.066 546.901 240 546.901 S 717.506 571.398 960 571.398 S 1514.93 533.376 1680 533.376 S 2192.94 560.707 2400 560.707 S 2861.96 548.301 3120 548.301 S 3684.09 593.986 3840 593.986" transform="matrix(1,0,0,1,-862.5615234375,0)" style="fill:none;stroke:rgb(229, 182, 78);transform:matrix(1, 0, 0, 1, -862.562, 0);;animation:none"></path></g>
<g transform="matrix(-0.8728507651692603,0.48798723522591936,-0.48798723522591936,-0.8728507651692603,2032.90258832377,433.30989761211623)" style="transform:matrix(-0.872851, 0.487987, -0.487987, -0.872851, 2032.9, 433.31);;animation:none"><path stroke-width="1.4433962264150944" stroke-opacity="0.5535714285714286" stroke="rgb(221, 177, 83)" fill="none" d="M -1920 567.677 S -1363.69 530.566 -1200 530.566 S -600.455 578.59 -480 578.59 S 9.56592 528.455 240 528.455 S 819.254 569.455 960 569.455 S 1496.37 533.006 1680 533.006 S 2197.22 565.156 2400 565.156 S 2912.38 528.093 3120 528.093 S 3575.5 553.006 3840 553.006" transform="matrix(1,0,0,1,-873.359375,0)" style="fill:none;stroke:rgb(221, 177, 83);transform:matrix(1, 0, 0, 1, -873.359, 0);;animation:none"></path></g>
<g transform="matrix(-0.868006338171993,0.49655311588313256,-0.49655311588313256,-0.868006338171993,2032.3764099428417,422.7540605820074)" style="transform:matrix(-0.868006, 0.496553, -0.496553, -0.868006, 2032.38, 422.754);;animation:none"><path stroke-width="1.3584905660377358" stroke-opacity="0.5714285714285714" stroke="rgb(210, 171, 89)" fill="none" d="M -1920 548.94 S -1378.15 523.532 -1200 523.532 S -676.086 580.973 -480 580.973 S -1.84827 568.735 240 568.735 S 859.744 604.617 960 604.617 S 1411.69 578.141 1680 578.141 S 2197.09 630.598 2400 630.598 S 2926.36 577.701 3120 577.701 S 3622.02 594.701 3840 594.701" transform="matrix(1,0,0,1,-883.4346923828125,0)" style="fill:none;stroke:rgb(210, 171, 89);transform:matrix(1, 0, 0, 1, -883.435, 0);;animation:none"></path></g>
<g transform="matrix(-0.8634520854862746,0.5044308635178889,-0.5044308635178889,-0.8634520854862746,2031.7974628506872,412.9985501844679)" style="transform:matrix(-0.863452, 0.504431, -0.504431, -0.863452, 2031.8, 412.999);;animation:none"><path stroke-width="1.2735849056603774" stroke-opacity="0.5892857142857143" stroke="rgb(199, 164, 96)" fill="none" d="M -1920 514.058 S -1356.06 475.46 -1200 475.46 S -584.266 490.733 -480 490.733 S 56.9612 434.058 240 434.058 S 749.285 465.954 960 465.954 S 1518.9 427.765 1680 427.765 S 2177.24 448.174 2400 448.174 S 2905.86 411.882 3120 411.882 S 3577.85 455.83 3840 455.83" transform="matrix(1,0,0,1,-892.802490234375,0)" style="fill:none;stroke:rgb(199, 164, 96);transform:matrix(1, 0, 0, 1, -892.802, 0);;animation:none"></path></g>
<g transform="matrix(-0.8592026395846736,0.5116354406515733,-0.5116354406515733,-0.8592026395846736,2031.1869986750191,404.03604793450995)" style="transform:matrix(-0.859203, 0.511635, -0.511635, -0.859203, 2031.19, 404.036);;animation:none"><path stroke-width="1.1886792452830188" stroke-opacity="0.6071428571428571" stroke="rgb(186, 157, 103)" fill="none" d="M -1920 562.915 S -1458.79 523.813 -1200 523.813 S -723.815 567.392 -480 567.392 S 153.807 551.532 240 551.532 S 706.856 573.316 960 573.316 S 1519.55 532.381 1680 532.381 S 2176.26 557.903 2400 557.903 S 2856.13 546.502 3120 546.502 S 3695.74 591.483 3840 591.483" transform="matrix(1,0,0,1,-901.4818115234375,0)" style="fill:none;stroke:rgb(186, 157, 103);transform:matrix(1, 0, 0, 1, -901.482, 0);;animation:none"></path></g>
<g transform="matrix(-0.8552667356306951,0.518188007313576,-0.518188007313576,-0.8552667356306951,2030.5635917269542,395.8504461851468)" style="transform:matrix(-0.855267, 0.518188, -0.518188, -0.855267, 2030.56, 395.85);;animation:none"><path stroke-width="1.1037735849056605" stroke-opacity="0.625" stroke="rgb(173, 149, 111)" fill="none" d="M -1920 572.631 S -1358.59 533.388 -1200 533.388 S -594.151 582.71 -480 582.71 S 5.39423 529.145 240 529.145 S 829.174 570.145 960 570.145 S 1501.01 532.583 1680 532.583 S 2182.3 565.104 2400 565.104 S 2902.19 528.505 3120 528.505 S 3571.79 552.583 3840 552.583" transform="matrix(1,0,0,1,-909.4910888671875,0)" style="fill:none;stroke:rgb(173, 149, 111);transform:matrix(1, 0, 0, 1, -909.491, 0);;animation:none"></path></g>
<g transform="matrix(-0.851649979357572,0.5241109736117411,-0.5241109736117411,-0.851649979357572,2029.9434139773225,388.4229303933995)" style="transform:matrix(-0.85165, 0.524111, -0.524111, -0.85165, 2029.94, 388.423);;animation:none"><path stroke-width="1.0188679245283019" stroke-opacity="0.6428571428571429" stroke="rgb(159, 140, 120)" fill="none" d="M -1920 545.847 S -1385.38 522.905 -1200 522.905 S -672.856 580.6 -480 580.6 S 0.361969 569.383 240 569.383 S 864.42 605.774 960 605.774 S 1412.29 581.339 1680 581.339 S 2193.86 635.411 2400 635.411 S 2919.81 580.643 3120 580.643 S 3613.35 597.643 3840 597.643" transform="matrix(1,0,0,1,-916.8450927734375,0)" style="fill:none;stroke:rgb(159, 140, 120);transform:matrix(1, 0, 0, 1, -916.845, 0);;animation:none"></path></g>
<g transform="matrix(-0.8483518010930317,0.529432924535497,-0.529432924535497,-0.8483518010930317,2029.3396822131522,381.7257846722177)" style="transform:matrix(-0.848352, 0.529433, -0.529433, -0.848352, 2029.34, 381.726);;animation:none"><path stroke-width="0.9339622641509434" stroke-opacity="0.6607142857142857" stroke="rgb(145, 132, 128)" fill="none" d="M -1920 507.865 S -1351.26 470.507 -1200 470.507 S -586.048 484.695 -480 484.695 S 62.2299 427.865 240 427.865 S 742.467 457.901 960 457.901 S 1517.04 419.326 1680 419.326 S 2178.56 438.107 2400 438.107 S 2906.41 399.568 3120 399.568 S 3572.19 442.586 3840 442.586" transform="matrix(1,0,0,1,-923.561767578125,0)" style="fill:none;stroke:rgb(145, 132, 128);transform:matrix(1, 0, 0, 1, -923.562, 0);;animation:none"></path></g>
<g transform="matrix(-0.845369371455922,0.5341822028149379,-0.5341822028149379,-0.845369371455922,2028.7633272530777,375.730437653686)" style="transform:matrix(-0.845369, 0.534182, -0.534182, -0.845369, 2028.76, 375.73);;animation:none"><path stroke-width="0.8490566037735849" stroke-opacity="0.6785714285714286" stroke="rgb(132, 125, 135)" fill="none" d="M -1920 564.956 S -1471.91 526.907 -1200 526.907 S -726.411 570.697 -480 570.697 S 159.912 554.767 240 554.767 S 699.418 574.656 960 574.656 S 1522.78 531.685 1680 531.685 S 2164.62 555.945 2400 555.945 S 2852.06 545.245 3120 545.245 S 3703.88 589.735 3840 589.735" transform="matrix(1,0,0,1,-929.6572265625,0)" style="fill:none;stroke:rgb(132, 125, 135);transform:matrix(1, 0, 0, 1, -929.657, 0);;animation:none"></path></g>
<g transform="matrix(-0.8426967485099979,0.5383885121830493,-0.5383885121830493,-0.8426967485099979,2028.2229471857363,370.40551271183665)" style="transform:matrix(-0.842697, 0.538389, -0.538389, -0.842697, 2028.22, 370.406);;animation:none"><path stroke-width="0.7641509433962265" stroke-opacity="0.6964285714285714" stroke="rgb(120, 117, 143)" fill="none" d="M -1920 576.004 S -1355.12 535.309 -1200 535.309 S -589.86 585.515 -480 585.515 S 2.55417 529.615 240 529.615 S 835.927 570.615 960 570.615 S 1504.16 532.296 1680 532.296 S 2172.14 565.069 2400 565.069 S 2895.24 528.785 3120 528.785 S 3569.27 552.296 3840 552.296" transform="matrix(1,0,0,1,-935.1484375,0)" style="fill:none;stroke:rgb(120, 117, 143);transform:matrix(1, 0, 0, 1, -935.148, 0);;animation:none"></path></g>
<g transform="matrix(-0.8403273002860908,0.5420793561775713,-0.5420793561775713,-0.8403273002860908,2027.7254182741476,365.7214131572843)" style="transform:matrix(-0.840327, 0.542079, -0.542079, -0.840327, 2027.73, 365.721);;animation:none"><path stroke-width="0.6792452830188679" stroke-opacity="0.7142857142857143" stroke="rgb(109, 111, 149)" fill="none" d="M -1920 543.797 S -1390.16 522.489 -1200 522.489 S -670.715 580.353 -480 580.353 S 1.82675 569.812 240 569.812 S 867.518 606.541 960 606.541 S 1412.68 583.458 1680 583.458 S 2191.71 638.601 2400 638.601 S 2915.47 582.594 3120 582.594 S 3607.6 599.594 3840 599.594" transform="matrix(1,0,0,1,-940.0494384765625,0)" style="fill:none;stroke:rgb(109, 111, 149);transform:matrix(1, 0, 0, 1, -940.049, 0);;animation:none"></path></g>
<g transform="matrix(-0.8382518623063994,0.545283243223055,-0.545283243223055,-0.8382518623063994,2027.2756694260443,361.64635820639853)" style="transform:matrix(-0.838252, 0.545283, -0.545283, -0.838252, 2027.28, 361.646);;animation:none"><path stroke-width="0.5943396226415094" stroke-opacity="0.7321428571428571" stroke="rgb(100, 106, 154)" fill="none" d="M -1920 503.88 S -1348.17 467.32 -1200 467.32 S -587.195 480.81 -480 480.81 S 65.6201 423.88 240 423.88 S 738.08 452.72 960 452.72 S 1515.84 413.895 1680 413.895 S 2179.41 431.63 2400 431.63 S 2906.75 391.645 3120 391.645 S 3568.55 434.065 3840 434.065" transform="matrix(1,0,0,1,-944.3758544921875,0)" style="fill:none;stroke:rgb(100, 106, 154);transform:matrix(1, 0, 0, 1, -944.376, 0);;animation:none"></path></g>
<g transform="matrix(-0.8364604606329187,0.5480272783336295,-0.5480272783336295,-0.8364604606329187,2026.8771767252445,358.149524594466)" style="transform:matrix(-0.83646, 0.548027, -0.548027, -0.83646, 2026.88, 358.15);;animation:none"><path stroke-width="0.5094339622641509" stroke-opacity="0.75" stroke="rgb(92, 101, 159)" fill="none" d="M -1920 566.227 S -1480.08 528.832 -1200 528.832 S -728.027 572.753 -480 572.753 S 163.711 556.78 240 556.78 S 694.789 575.49 960 575.49 S 1524.79 531.253 1680 531.253 S 2157.37 554.726 2400 554.726 S 2849.53 544.463 3120 544.463 S 3708.95 588.647 3840 588.647" transform="matrix(1,0,0,1,-948.1431884765625,0)" style="fill:none;stroke:rgb(92, 101, 159);transform:matrix(1, 0, 0, 1, -948.143, 0);;animation:none"></path></g>
<g transform="matrix(-0.8349432006076764,0.5503361261620117,-0.5503361261620117,-0.8349432006076764,2026.5323173303777,355.202469977065)" style="transform:matrix(-0.834943, 0.550336, -0.550336, -0.834943, 2026.53, 355.202);;animation:none"><path stroke-width="0.42452830188679247" stroke-opacity="0.7678571428571429" stroke="rgb(86, 97, 163)" fill="none" d="M -1920 578.023 S -1353.04 536.459 -1200 536.459 S -587.291 587.193 -480 587.193 S 0.854034 529.896 240 529.896 S 839.969 570.896 960 570.896 S 1506.05 532.123 1680 532.123 S 2166.06 565.047 2400 565.047 S 2891.09 528.953 3120 528.953 S 3567.76 552.123 3840 552.123" transform="matrix(1,0,0,1,-951.364990234375,0)" style="fill:none;stroke:rgb(86, 97, 163);transform:matrix(1, 0, 0, 1, -951.365, 0);;animation:none"></path></g>
<g transform="matrix(-0.8336890968989175,0.5522340895959497,-0.5522340895959497,-0.8336890968989175,2026.2422471634104,352.776574144717)" style="transform:matrix(-0.833689, 0.552234, -0.552234, -0.833689, 2026.24, 352.777);;animation:none"><path stroke-width="0.33962264150943394" stroke-opacity="0.7857142857142857" stroke="rgb(81, 94, 166)" fill="none" d="M -1920 542.627 S -1392.9 522.251 -1200 522.251 S -669.492 580.212 -480 580.212 S 2.66345 570.057 240 570.057 S 869.288 606.979 960 606.979 S 1412.91 584.669 1680 584.669 S 2190.49 640.423 2400 640.423 S 2913 583.708 3120 583.708 S 3604.32 600.708 3840 600.708" transform="matrix(1,0,0,1,-954.055419921875,0)" style="fill:none;stroke:rgb(81, 94, 166);transform:matrix(1, 0, 0, 1, -954.055, 0);;animation:none"></path></g>
<g transform="matrix(-0.8326872199047912,0.5537436173963813,-0.5537436173963813,-0.8326872199047912,2026.0072828849572,350.8450236836309)" style="transform:matrix(-0.832687, 0.553744, -0.553744, -0.832687, 2026.01, 350.845);;animation:none"><path stroke-width="0.25471698113207547" stroke-opacity="0.8035714285714286" stroke="rgb(76, 92, 168)" fill="none" d="M -1920 501.733 S -1346.5 465.603 -1200 465.603 S -587.813 478.716 -480 478.716 S 67.4467 421.733 240 421.733 S 735.716 449.928 960 449.928 S 1515.2 410.969 1680 410.969 S 2179.86 428.14 2400 428.14 S 2906.94 387.376 3120 387.376 S 3566.59 429.473 3840 429.473" transform="matrix(1,0,0,1,-956.2281494140625,0)" style="fill:none;stroke:rgb(76, 92, 168);transform:matrix(1, 0, 0, 1, -956.228, 0);;animation:none"></path></g>
<g transform="matrix(-0.8319263710090675,0.5548860362449962,-0.5548860362449962,-0.8319263710090675,2025.8269426206705,349.3819528456696)" style="transform:matrix(-0.831926, 0.554886, -0.554886, -0.831926, 2025.83, 349.382);;animation:none"><path stroke-width="0.16981132075471697" stroke-opacity="0.8214285714285714" stroke="rgb(74, 90, 170)" fill="none" d="M -1920 566.861 S -1484.16 529.794 -1200 529.794 S -728.834 573.78 -480 573.78 S 165.609 557.785 240 557.785 S 692.477 575.906 960 575.906 S 1525.79 531.037 1680 531.037 S 2153.75 554.118 2400 554.118 S 2848.26 544.073 3120 544.073 S 3711.48 588.104 3840 588.104" transform="matrix(1,0,0,1,-957.8966064453125,0)" style="fill:none;stroke:rgb(74, 90, 170);transform:matrix(1, 0, 0, 1, -957.897, 0);;animation:none"></path></g>
<g transform="matrix(-0.8313962182266493,0.5556800593132938,-0.5556800593132938,-0.8313962182266493,2025.7003180569343,348.36442213536964)" style="transform:matrix(-0.831396, 0.55568, -0.55568, -0.831396, 2025.7, 348.364);;animation:none"><path stroke-width="0.08490566037735849" stroke-opacity="0.8392857142857143" stroke="rgb(72, 89, 171)" fill="none" d="M -1920 578.932 S -1352.11 536.977 -1200 536.977 S -586.134 587.95 -480 587.95 S 0.0884094 530.022 240 530.022 S 841.79 571.022 960 571.022 S 1506.9 532.046 1680 532.046 S 2163.32 565.038 2400 565.038 S 2889.22 529.028 3120 529.028 S 3567.08 552.046 3840 552.046" transform="matrix(1,0,0,1,-959.072998046875,0)" style="fill:none;stroke:rgb(72, 89, 171);transform:matrix(1, 0, 0, 1, -959.073, 0);;animation:none"></path></g>
<g transform="matrix(-0.8310856126854207,0.5561444995568138,-0.5561444995568138,-0.8310856126854207,2025.6257647146097,347.7690029334888)" style="transform:matrix(-0.831086, 0.556144, -0.556144, -0.831086, 2025.63, 347.769);;animation:none"><path stroke-width="0" stroke-opacity="0.8571428571428571" stroke="rgb(70, 88, 172)" fill="none" d="M -1920 542.173 S -1393.96 522.159 -1200 522.159 S -669.018 580.158 -480 580.158 S 2.98746 570.152 240 570.152 S 869.973 607.149 960 607.149 S 1413 585.138 1680 585.138 S 2190.02 641.128 2400 641.128 S 2912.04 584.139 3120 584.139 S 3603.05 601.139 3840 601.139" transform="matrix(1,0,0,1,-959.770263671875,0)" style="fill:none;stroke:rgb(70, 88, 172);transform:matrix(1, 0, 0, 1, -959.77, 0);;animation:none"></path></g>
<g></g></g><!-- [ldio] generated by https://loading.io --></svg>