<svg id="visual" viewBox="0 0 1920 1080" width="1920" height="1080" xmlns="http://www.w3.org/2000/svg" xmlns:xlink="http://www.w3.org/1999/xlink" version="1.1"><rect x="0" y="0" width="1920" height="1080" fill="#000000"></rect><defs><linearGradient id="grad1_0" x1="43.8%" y1="0%" x2="100%" y2="100%"><stop offset="14.444444444444446%" stop-color="#ffffff" stop-opacity="1"></stop><stop offset="85.55555555555554%" stop-color="#ffffff" stop-opacity="1"></stop></linearGradient></defs><defs><linearGradient id="grad1_1" x1="43.8%" y1="0%" x2="100%" y2="100%"><stop offset="14.444444444444446%" stop-color="#ffffff" stop-opacity="1"></stop><stop offset="85.55555555555554%" stop-color="#000000" stop-opacity="1"></stop></linearGradient></defs><defs><linearGradient id="grad2_0" x1="0%" y1="0%" x2="56.3%" y2="100%"><stop offset="14.444444444444446%" stop-color="#ffffff" stop-opacity="1"></stop><stop offset="85.55555555555554%" stop-color="#ffffff" stop-opacity="1"></stop></linearGradient></defs><defs><linearGradient id="grad2_1" x1="0%" y1="0%" x2="56.3%" y2="100%"><stop offset="14.444444444444446%" stop-color="#000000" stop-opacity="1"></stop><stop offset="85.55555555555554%" stop-color="#ffffff" stop-opacity="1"></stop></linearGradient></defs><g transform="translate(1920, 0)"><path d="M0 540C-98.3 528.1 -196.5 516.2 -270 467.7C-343.5 419.1 -392.1 334 -433 250C-473.9 166 -506.9 83 -540 0L0 0Z" fill="#777777"></path><path d="M0 270C-49.1 264 -98.3 258.1 -135 233.8C-171.7 209.6 -196.1 167 -216.5 125C-236.9 83 -253.5 41.5 -270 0L0 0Z" fill="#ffffff"></path></g><g transform="translate(0, 1080)"><path d="M0 -540C90.7 -520.3 181.4 -500.7 264.5 -458.1C347.6 -415.6 423 -350.2 467.7 -270C512.3 -189.8 526.1 -94.9 540 0L0 0Z" fill="#777777"></path><path d="M0 -270C45.4 -260.2 90.7 -250.3 132.2 -229.1C173.8 -207.8 211.5 -175.1 233.8 -135C256.1 -94.9 263.1 -47.5 270 0L0 0Z" fill="#ffffff"></path></g></svg>