<svg id="visual" viewBox="0 0 450 900" width="450" height="900" xmlns="http://www.w3.org/2000/svg" xmlns:xlink="http://www.w3.org/1999/xlink" version="1.1"><rect x="0" y="0" width="450" height="900" fill="#000000"></rect><defs><linearGradient id="grad1_0" x1="0%" y1="0%" x2="100%" y2="100%"><stop offset="30%" stop-color="#f60000" stop-opacity="1"></stop><stop offset="70%" stop-color="#f60000" stop-opacity="1"></stop></linearGradient></defs><defs><linearGradient id="grad1_1" x1="0%" y1="0%" x2="100%" y2="100%"><stop offset="30%" stop-color="#f60000" stop-opacity="1"></stop><stop offset="70%" stop-color="#000000" stop-opacity="1"></stop></linearGradient></defs><defs><linearGradient id="grad2_0" x1="0%" y1="0%" x2="100%" y2="100%"><stop offset="30%" stop-color="#f60000" stop-opacity="1"></stop><stop offset="70%" stop-color="#f60000" stop-opacity="1"></stop></linearGradient></defs><defs><linearGradient id="grad2_1" x1="0%" y1="0%" x2="100%" y2="100%"><stop offset="30%" stop-color="#000000" stop-opacity="1"></stop><stop offset="70%" stop-color="#f60000" stop-opacity="1"></stop></linearGradient></defs><g transform="translate(450, 0)"><path d="M0 247.5C-30.1 234 -60.2 220.6 -85 205.1C-109.7 189.6 -129.2 172.1 -154.9 154.9C-180.5 137.6 -212.2 120.5 -228.7 94.7C-245.1 68.9 -246.3 34.5 -247.5 0L0 0Z" fill="#a10000"></path><path d="M0 123.8C-15 117 -30.1 110.3 -42.5 102.6C-54.9 94.8 -64.6 86.1 -77.4 77.4C-90.2 68.8 -106.1 60.2 -114.3 47.4C-122.6 34.5 -123.2 17.2 -123.7 0L0 0Z" fill="#f60000"></path></g><g transform="translate(0, 900)"><path d="M0 -247.5C30 -240.1 59.9 -232.7 92.2 -222.7C124.5 -212.6 159.2 -200 175 -175C190.8 -150 187.8 -112.7 196.8 -81.5C205.7 -50.3 226.6 -25.1 247.5 0L0 0Z" fill="#a10000"></path><path d="M0 -123.7C15 -120 30 -116.3 46.1 -111.3C62.3 -106.3 79.6 -100 87.5 -87.5C95.4 -75 93.9 -56.4 98.4 -40.8C102.9 -25.1 113.3 -12.6 123.8 0L0 0Z" fill="#f60000"></path></g></svg>