<svg id="visual" viewBox="0 0 750 550" width="750" height="550" xmlns="http://www.w3.org/2000/svg" xmlns:xlink="http://www.w3.org/1999/xlink" version="1.1"><rect x="0" y="0" width="750" height="550" fill="#000000"></rect><defs><linearGradient id="grad1_0" x1="26.7%" y1="0%" x2="100%" y2="100%"><stop offset="22.72727272727273%" stop-color="#f60000" stop-opacity="1"></stop><stop offset="77.27272727272728%" stop-color="#f60000" stop-opacity="1"></stop></linearGradient></defs><defs><linearGradient id="grad1_1" x1="26.7%" y1="0%" x2="100%" y2="100%"><stop offset="22.72727272727273%" stop-color="#f60000" stop-opacity="1"></stop><stop offset="77.27272727272728%" stop-color="#000000" stop-opacity="1"></stop></linearGradient></defs><defs><linearGradient id="grad2_0" x1="0%" y1="0%" x2="73.3%" y2="100%"><stop offset="22.72727272727273%" stop-color="#f60000" stop-opacity="1"></stop><stop offset="77.27272727272728%" stop-color="#f60000" stop-opacity="1"></stop></linearGradient></defs><defs><linearGradient id="grad2_1" x1="0%" y1="0%" x2="73.3%" y2="100%"><stop offset="22.72727272727273%" stop-color="#000000" stop-opacity="1"></stop><stop offset="77.27272727272728%" stop-color="#f60000" stop-opacity="1"></stop></linearGradient></defs><g transform="translate(750, 0)"><path d="M0 255.8C-25 232.5 -50 209.2 -83 200.5C-116.1 191.7 -157.3 197.5 -180.9 180.9C-204.4 164.2 -210.3 125 -219.9 91.1C-229.4 57.2 -242.6 28.6 -255.8 0L0 0Z" fill="#a10000"></path><path d="M0 127.9C-12.5 116.2 -25 104.6 -41.5 100.2C-58.1 95.9 -78.6 98.8 -90.4 90.4C-102.2 82.1 -105.2 62.5 -109.9 45.5C-114.7 28.6 -121.3 14.3 -127.9 0L0 0Z" fill="#f60000"></path></g><g transform="translate(0, 550)"><path d="M0 -255.8C37.2 -255.7 74.3 -255.6 97.9 -236.3C121.4 -217 131.3 -178.6 154.1 -154.1C177 -129.7 212.8 -119.4 231.9 -96.1C251 -72.7 253.4 -36.4 255.8 0L0 0Z" fill="#a10000"></path><path d="M0 -127.9C18.6 -127.8 37.2 -127.8 48.9 -118.1C60.7 -108.5 65.7 -89.3 77.1 -77.1C88.5 -64.9 106.4 -59.7 115.9 -48C125.5 -36.4 126.7 -18.2 127.9 0L0 0Z" fill="#f60000"></path></g></svg>