<svg id="visual" viewBox="0 0 1920 1080" width="1920" height="1080" xmlns="http://www.w3.org/2000/svg" xmlns:xlink="http://www.w3.org/1999/xlink" version="1.1"><rect x="0" y="0" width="1920" height="1080" fill="#000000"></rect><defs><linearGradient id="grad1_0" x1="43.8%" y1="0%" x2="100%" y2="100%"><stop offset="14.444444444444446%" stop-color="#f60000" stop-opacity="1"></stop><stop offset="85.55555555555554%" stop-color="#f60000" stop-opacity="1"></stop></linearGradient></defs><defs><linearGradient id="grad1_1" x1="43.8%" y1="0%" x2="100%" y2="100%"><stop offset="14.444444444444446%" stop-color="#f60000" stop-opacity="1"></stop><stop offset="85.55555555555554%" stop-color="#000000" stop-opacity="1"></stop></linearGradient></defs><defs><linearGradient id="grad2_0" x1="0%" y1="0%" x2="56.3%" y2="100%"><stop offset="14.444444444444446%" stop-color="#f60000" stop-opacity="1"></stop><stop offset="85.55555555555554%" stop-color="#f60000" stop-opacity="1"></stop></linearGradient></defs><defs><linearGradient id="grad2_1" x1="0%" y1="0%" x2="56.3%" y2="100%"><stop offset="14.444444444444446%" stop-color="#000000" stop-opacity="1"></stop><stop offset="85.55555555555554%" stop-color="#f60000" stop-opacity="1"></stop></linearGradient></defs><g transform="translate(1920, 0)"><path d="M0 540C-64.8 475.5 -129.7 411.1 -216 374.1C-302.3 337.2 -410.1 327.8 -467.7 270C-525.2 212.2 -532.6 106.1 -540 0L0 0Z" fill="#a10000"></path><path d="M0 270C-32.4 237.8 -64.8 205.5 -108 187.1C-151.2 168.6 -205 163.9 -233.8 135C-262.6 106.1 -266.3 53.1 -270 0L0 0Z" fill="#f60000"></path></g><g transform="translate(0, 1080)"><path d="M0 -540C69.9 -484.3 139.8 -428.6 225.5 -390.6C311.2 -352.5 412.6 -332.2 467.7 -270C522.7 -207.8 531.3 -103.9 540 0L0 0Z" fill="#a10000"></path><path d="M0 -270C35 -242.2 69.9 -214.3 112.7 -195.3C155.6 -176.3 206.3 -166.1 233.8 -135C261.3 -103.9 265.7 -52 270 0L0 0Z" fill="#f60000"></path></g></svg>