<svg id="visual" viewBox="0 0 540 960" width="540" height="960" xmlns="http://www.w3.org/2000/svg" xmlns:xlink="http://www.w3.org/1999/xlink" version="1.1"><rect x="0" y="0" width="540" height="960" fill="#000000"></rect><defs><linearGradient id="grad1_0" x1="0%" y1="0%" x2="100%" y2="100%"><stop offset="30%" stop-color="#ff0000" stop-opacity="1"></stop><stop offset="70%" stop-color="#ff0000" stop-opacity="1"></stop></linearGradient></defs><defs><linearGradient id="grad1_1" x1="0%" y1="0%" x2="100%" y2="100%"><stop offset="30%" stop-color="#ff0000" stop-opacity="1"></stop><stop offset="70%" stop-color="#000000" stop-opacity="1"></stop></linearGradient></defs><defs><linearGradient id="grad2_0" x1="0%" y1="0%" x2="100%" y2="100%"><stop offset="30%" stop-color="#ff0000" stop-opacity="1"></stop><stop offset="70%" stop-color="#ff0000" stop-opacity="1"></stop></linearGradient></defs><defs><linearGradient id="grad2_1" x1="0%" y1="0%" x2="100%" y2="100%"><stop offset="30%" stop-color="#000000" stop-opacity="1"></stop><stop offset="70%" stop-color="#ff0000" stop-opacity="1"></stop></linearGradient></defs><g transform="translate(540, 0)"><path d="M0 270C-51.4 265.4 -102.9 260.7 -135 233.8C-167.1 206.9 -179.9 157.7 -199.2 115C-218.5 72.3 -244.2 36.2 -270 0L0 0Z" fill="#a60000"></path><path d="M0 135C-25.7 132.7 -51.4 130.4 -67.5 116.9C-83.6 103.5 -90 78.8 -99.6 57.5C-109.2 36.2 -122.1 18.1 -135 0L0 0Z" fill="#ff0000"></path></g><g transform="translate(0, 960)"><path d="M0 -270C55 -267.4 110 -264.9 135 -233.8C160 -202.8 154.8 -143.2 172.3 -99.5C189.8 -55.8 229.9 -27.9 270 0L0 0Z" fill="#a60000"></path><path d="M0 -135C27.5 -133.7 55 -132.4 67.5 -116.9C80 -101.4 77.4 -71.6 86.2 -49.8C94.9 -27.9 115 -13.9 135 0L0 0Z" fill="#ff0000"></path></g></svg>