<svg class="border shadow-md dark:border-slate-700" viewBox="0 0 708.4 708.4" xmlns="http://www.w3.org/2000/svg" preserveAspectRatio="none" style="width: 708.4px; height: 708.4px;"><rect class="bg" id="bg" x="0" y="0" width="708.4" height="708.4" fill="#ffffff"/><g transform="rotate(0 354.2 354.2)"><path d="M -454.20 -40.84 S -237.10 -76.26&#10;            0.00 -40.84 79.20 -76.26&#10;            454.20 -40.84 671.30 -76.26&#10;            908.40 -40.84 1010.60 -76.26&#10;            1362.60 -40.84 h 110 V 908.4 H -454.20 Z" fill="#241111" id="-1"/><path d="M -454.20 30.00 S -284.00 -5.42&#10;            0.00 30.00 217.10 -39.00&#10;            454.20 30.00 483.40 -26.00&#10;            908.40 30.00 914.60 -5.42&#10;            1362.60 30.00 h 110 V 908.4 H -454.20 Z" fill="#2a1212" id="0"/><path id="1" d="M -454.20 100.84 S -341.00 39.84&#10;            0.00 100.84 120.20 65.42&#10;            454.20 100.84 671.30 58.84&#10;            908.40 100.84 1125.50 60.84&#10;            1362.60 100.84 h 110 V 908.4 H -454.20 Z" fill="#301313"/><path id="2" d="M -454.20 171.68 S -237.10 136.26&#10;            0.00 171.68 217.10 135.68&#10;            454.20 171.68 671.30 125.68&#10;            908.40 171.68 1071.60 136.26&#10;            1362.60 171.68 h 110 V 908.4 H -454.20 Z" fill="#361414"/><path id="3" d="M -454.20 242.52 S -237.10 207.10&#10;            0.00 242.52 131.20 207.10&#10;            454.20 242.52 671.30 198.52&#10;            908.40 242.52 1125.50 198.52&#10;            1362.60 242.52 h 110 V 908.4 H -454.20 Z" fill="#3c1515"/><path id="4" d="M -454.20 313.36 S -263.00 277.94&#10;            0.00 313.36 14.20 247.36&#10;            454.20 313.36 497.40 277.94&#10;            908.40 313.36 996.60 277.94&#10;            1362.60 313.36 h 110 V 908.4 H -454.20 Z" fill="#421616"/><path id="5" d="M -454.20 384.20 S -368.00 342.20&#10;            0.00 384.20 217.10 348.78&#10;            454.20 384.20 671.30 323.20&#10;            908.40 384.20 1125.50 328.20&#10;            1362.60 384.20 h 110 V 908.4 H -454.20 Z" fill="#481717"/><path id="6" d="M -454.20 455.04 S -237.10 419.62&#10;            0.00 455.04 217.10 419.62&#10;            454.20 455.04 536.40 386.04&#10;            908.40 455.04 1125.50 419.62&#10;            1362.60 455.04 h 110 V 908.4 H -454.20 Z" fill="#4e1818"/><path id="7" d="M -454.20 525.88 S -281.00 490.46&#10;            0.00 525.88 162.20 458.88&#10;            454.20 525.88 671.30 472.88&#10;            908.40 525.88 936.60 479.88&#10;            1362.60 525.88 h 110 V 908.4 H -454.20 Z" fill="#541919"/><path id="8" d="M -454.20 596.72 S -437.00 560.72&#10;            0.00 596.72 217.10 534.72&#10;            454.20 596.72 583.40 526.72&#10;            908.40 596.72 1113.60 561.30&#10;            1362.60 596.72 h 110 V 908.4 H -454.20 Z" fill="#5a1a1a"/><path id="9" d="M -454.20 667.56 S -457.00 632.14&#10;            0.00 667.56 217.10 621.56&#10;            454.20 667.56 671.30 621.56&#10;            908.40 667.56 1125.50 632.14&#10;            1362.60 667.56 h 110 V 908.4 H -454.20 Z" fill="#601b1b"/></g></svg>