<svg class="border shadow-md dark:border-slate-700" viewBox="0 0 630.08 630.08" xmlns="http://www.w3.org/2000/svg" preserveAspectRatio="none" style="width: 630.08px; height: 630.08px;"><rect class="bg" id="bg" x="0" y="0" width="630.08" height="630.08" fill="#eb0000"/><g transform="rotate(0 315.04 315.04)"><path d="M -415.04 -15.01 S -217.52 -37.51&#10;            0.00 -15.01 197.52 -37.51&#10;            415.04 -15.01 484.08 -39.01&#10;            830.08 -15.01 1027.60 -37.51&#10;            1245.12 -15.01 h 110 V 830.08 H -415.04 Z" fill="#512D3F" id="-1"/><path d="M -415.04 30.00 S -217.52 -8.00&#10;            0.00 30.00 4.04 -8.00&#10;            415.04 30.00 612.56 5.00&#10;            830.08 30.00 1027.60 -3.00&#10;            1245.12 30.00 h 110 V 830.08 H -415.04 Z" fill="#582c3d" id="0"/><path id="1" d="M -415.04 75.01 S -384.00 52.50&#10;            0.00 75.01 4.04 52.50&#10;            415.04 75.01 612.56 49.01&#10;            830.08 75.01 986.12 40.01&#10;            1245.12 75.01 h 110 V 830.08 H -415.04 Z" fill="#5f2b3b"/><path id="2" d="M -415.04 120.01 S -256.00 97.51&#10;            0.00 120.01 197.52 96.01&#10;            415.04 120.01 612.56 92.01&#10;            830.08 120.01 1027.60 97.51&#10;            1245.12 120.01 h 110 V 830.08 H -415.04 Z" fill="#662a39"/><path id="3" d="M -415.04 165.02 S -217.52 142.51&#10;            0.00 165.02 176.04 123.02&#10;            415.04 165.02 612.56 138.02&#10;            830.08 165.02 900.12 128.02&#10;            1245.12 165.02 h 110 V 830.08 H -415.04 Z" fill="#6d2937"/><path id="4" d="M -415.04 210.02 S -217.52 187.52&#10;            0.00 210.02 197.52 187.52&#10;            415.04 210.02 449.08 167.02&#10;            830.08 210.02 1027.60 179.02&#10;            1245.12 210.02 h 110 V 830.08 H -415.04 Z" fill="#742835"/><path id="5" d="M -415.04 255.03 S -390.00 226.03&#10;            0.00 255.03 197.52 219.03&#10;            415.04 255.03 612.56 228.03&#10;            830.08 255.03 1027.60 232.53&#10;            1245.12 255.03 h 110 V 830.08 H -415.04 Z" fill="#7b2733"/><path id="6" d="M -415.04 300.03 S -364.00 277.53&#10;            0.00 300.03 197.52 277.53&#10;            415.04 300.03 605.08 272.03&#10;            830.08 300.03 1027.60 277.53&#10;            1245.12 300.03 h 110 V 830.08 H -415.04 Z" fill="#822631"/><path id="7" d="M -415.04 345.04 S -217.52 311.04&#10;            0.00 345.04 108.04 321.04&#10;            415.04 345.04 612.56 322.54&#10;            830.08 345.04 1027.60 303.04&#10;            1245.12 345.04 h 110 V 830.08 H -415.04 Z" fill="#89252f"/><path id="8" d="M -415.04 390.05 S -217.52 361.05&#10;            0.00 390.05 118.04 367.54&#10;            415.04 390.05 612.56 367.54&#10;            830.08 390.05 1001.12 367.54&#10;            1245.12 390.05 h 110 V 830.08 H -415.04 Z" fill="#90242d"/><path id="9" d="M -415.04 435.05 S -217.52 412.55&#10;            0.00 435.05 197.52 412.55&#10;            415.04 435.05 487.08 412.55&#10;            830.08 435.05 921.12 412.55&#10;            1245.12 435.05 h 110 V 830.08 H -415.04 Z" fill="#97232b"/><path id="10" d="M -415.04 480.06 S -302.00 457.55&#10;            0.00 480.06 197.52 452.06&#10;            415.04 480.06 612.56 457.55&#10;            830.08 480.06 944.12 440.06&#10;            1245.12 480.06 h 110 V 830.08 H -415.04 Z" fill="#9e2229"/><path id="11" d="M -415.04 525.06 S -295.00 488.06&#10;            0.00 525.06 79.04 502.56&#10;            415.04 525.06 449.08 492.06&#10;            830.08 525.06 1027.60 502.56&#10;            1245.12 525.06 h 110 V 830.08 H -415.04 Z" fill="#a52127"/><path id="12" d="M -415.04 570.07 S -241.00 527.07&#10;            0.00 570.07 197.52 547.57&#10;            415.04 570.07 500.08 547.57&#10;            830.08 570.07 1027.60 533.07&#10;            1245.12 570.07 h 110 V 830.08 H -415.04 Z" fill="#ac2025"/><path id="13" d="M -415.04 615.07 S -217.52 590.07&#10;            0.00 615.07 108.04 576.07&#10;            415.04 615.07 612.56 592.57&#10;            830.08 615.07 848.12 592.57&#10;            1245.12 615.07 h 110 V 830.08 H -415.04 Z" fill="#b31f23"/></g></svg>